<?xml version="1.0" encoding="utf-8"?>
<!-- Generator: Adobe Illustrator 16.0.0, SVG Export Plug-In . SVG Version: 6.00 Build 0)  -->
<!DOCTYPE svg PUBLIC "-//W3C//DTD SVG 1.1//EN" "http://www.w3.org/Graphics/SVG/1.1/DTD/svg11.dtd">
<svg version="1.1" id="prazdne" xmlns="http://www.w3.org/2000/svg" xmlns:xlink="http://www.w3.org/1999/xlink" x="0px" y="0px"
	 width="332.983px" height="127.494px" viewBox="0 0 332.983 127.494" enable-background="new 0 0 332.983 127.494"
	 xml:space="preserve">
<g>
	<path fill="#DC002E" d="M33.531,97.074c-3.396-1.983-6.307-2.868-9.498-2.868c-6.307,0-10.997,4.483-10.997,10.549
		c0,6.184,4.529,10.468,11.158,10.468c3.112,0,6.507-1.088,9.619-3.107v4.322c-2.708,1.412-5.66,2.422-9.983,2.422
		c-10.349,0-14.877-7.96-14.877-13.739c0-8.411,6.347-14.553,15.119-14.553c2.829,0,5.7,0.691,9.459,2.265V97.074z"/>
	<path fill="#DC002E" d="M42.828,94.488v-3.559h23.769l-17.544,24.012h17.544v3.556H41.737l17.541-24.009H42.828z"/>
	<path fill="#DC002E" d="M92.144,94.488H80.46v8.328H91.74v3.557H80.46v8.568h12.046v3.556H76.498V90.929h15.646V94.488z"/>
	<path fill="#DC002E" d="M125.855,97.074c-3.396-1.983-6.306-2.868-9.501-2.868c-6.304,0-10.993,4.483-10.993,10.549
		c0,6.184,4.527,10.468,11.157,10.468c3.112,0,6.507-1.088,9.619-3.107v4.322c-2.708,1.412-5.659,2.422-9.982,2.422
		c-10.35,0-14.879-7.96-14.879-13.739c0-8.411,6.348-14.553,15.119-14.553c2.831,0,5.701,0.691,9.46,2.265V97.074z"/>
	<path fill="#DC002E" d="M159.811,118.497h-3.963v-12.005h-15.441v12.005h-3.963V90.929h3.963v12.004h15.441V90.929h3.963V118.497z"
		/>
	<path fill="#002F60" d="M175.773,118.497h-3.961V90.929h3.961V118.497z"/>
	<path fill="#002F60" d="M213.249,118.497h-3.396l-18.432-21.22v21.22H187.7V90.929h3.156l18.672,21.342V90.929h3.721V118.497z"/>
	<path fill="#002F60" d="M234.467,118.742h-0.809l-11.922-27.813h3.961l8.285,19.361l8.248-19.361h3.922L234.467,118.742z"/>
	<path fill="#002F60" d="M270.485,94.488h-11.68v8.328h11.273v3.557h-11.273v8.568h12.043v3.556h-16.01V90.929h15.646V94.488z"/>
	<path fill="#002F60" d="M294.616,96.995c-2.342-2.223-4.607-2.87-6.465-2.87c-2.549,0-4.367,1.333-4.367,3.274
		c0,5.293,11.926,5.213,11.926,13.985c0,4.328-3.273,7.475-7.721,7.475c-2.99,0-5.416-0.807-7.725-2.543v-5.013
		c2.025,2.586,4.568,4.002,7.279,4.002c3.072,0,4.484-1.938,4.484-3.478c0-5.698-11.92-6.341-11.92-13.902
		c0-4.487,3.313-7.359,8.367-7.359c2.102,0,4.201,0.647,6.141,1.941V96.995z"/>
	<path fill="#002F60" d="M326.188,94.488h-9.543v24.009h-3.961V94.488h-9.539v-3.559h23.043V94.488z"/>
	<g>
		<path fill="#002F60" d="M182.827,53.554c-0.748,3.351-1.238,5.149-1.881,7.115c-1.643,4.988-3.348,7.305-4.905,7.305
			c-4.324,0-7.82-11.917-7.82-26.127c0-14.206,3.51-25.734,7.824-25.734c2.987,0,5.409,4.333,6.741,12.362
			c-1.713-13.671-6.002-22.278-11.231-22.278c-6.695,0-12.135,16.055-12.135,35.86c0,19.791,5.439,35.832,12.135,35.832
			c5.422,0,9.981-9.928,11.559-24.359C183.018,53.539,182.922,53.547,182.827,53.554z"/>
		<g>
			<path fill="#DC002E" d="M157.76,43.768c-9.716-1.749-13.12-3.818-13.12-5.906c0-2.488,5.743-4.656,13.6-5.896
				c0.014-0.155,0.031-0.31,0.047-0.465c-12.88,1.755-22.443,5.683-22.443,10.225c0,3.598,6.161,8.07,22.375,10.175
				C157.961,49.229,157.809,46.492,157.76,43.768z"/>
			<path fill="#DC002E" d="M185.055,31.244c0,0,14.506,2.284,14.99,6.479c0,3.832-12.328,6.955-27.534,6.999
				c-1.367,0-1.311-0.018-2.574-0.085c0.096,2.986,0.332,5.679,0.678,8.072c1.098,0.022,0.971,0.044,2.182,0.044
				c20.206-0.044,36.555-5.076,36.555-11.198C209.352,37.823,201.729,32.69,185.055,31.244z"/>
		</g>
	</g>
</g>
</svg>
