<?xml version="1.0" encoding="UTF-8" standalone="no"?>
<!-- Created with Inkscape (http://www.inkscape.org/) -->

<svg
   xmlns:dc="http://purl.org/dc/elements/1.1/"
   xmlns:cc="http://creativecommons.org/ns#"
   xmlns:rdf="http://www.w3.org/1999/02/22-rdf-syntax-ns#"
   xmlns:svg="http://www.w3.org/2000/svg"
   xmlns="http://www.w3.org/2000/svg"
   xmlns:sodipodi="http://sodipodi.sourceforge.net/DTD/sodipodi-0.dtd"
   xmlns:inkscape="http://www.inkscape.org/namespaces/inkscape"
   width="48"
   height="48"
   id="svg2"
   version="1.1"
   inkscape:version="0.48.4 r9939"
   sodipodi:docname="New document 1">
  <defs
     id="defs4" />
  <sodipodi:namedview
     id="base"
     pagecolor="#ffffff"
     bordercolor="#666666"
     borderopacity="1.0"
     inkscape:pageopacity="0.0"
     inkscape:pageshadow="2"
     inkscape:zoom="7.9195959"
     inkscape:cx="4.5248646"
     inkscape:cy="15.297374"
     inkscape:document-units="px"
     inkscape:current-layer="layer1"
     showgrid="false"
     inkscape:window-width="1249"
     inkscape:window-height="778"
     inkscape:window-x="26"
     inkscape:window-y="51"
     inkscape:window-maximized="0" />
  <metadata
     id="metadata7">
    <rdf:RDF>
      <cc:Work
         rdf:about="">
        <dc:format>image/svg+xml</dc:format>
        <dc:type
           rdf:resource="http://purl.org/dc/dcmitype/StillImage" />
        <dc:title></dc:title>
      </cc:Work>
    </rdf:RDF>
  </metadata>
  <g
     inkscape:label="Layer 1"
     inkscape:groupmode="layer"
     id="layer1"
     transform="translate(0,-1004.3622)">
    <path
       style="fill:#000000"
       d="m 14.777137,1039.2194 c 0,-8.298 0.0064,-8.617 0.189446,-9.5155 0.468628,-2.2996 1.67201,-4.2333 3.499696,-5.6235 0.761125,-0.579 2.228718,-1.2989 3.181886,-1.5609 0.619564,-0.1703 0.989143,-0.2038 2.305715,-0.2092 1.864108,-0.01 2.575253,0.1442 4.058058,0.8654 2.49484,1.2136 4.213187,3.3397 4.960369,6.1377 0.193663,0.7252 0.197553,0.8897 0.227269,9.6148 l 0.03023,8.877 -9.226338,0 -9.226335,0 0,-8.5858 z m -8.373292,-1.3979 0.02674,-6.2946 0.2511971,-0.7379 c 0.3527449,-1.0361 0.8425888,-1.8289 1.5946448,-2.581 1.2213322,-1.2213 2.6242511,-1.821 4.2872151,-1.8327 1.029335,-0.01 1.98211,0.1649 1.900504,0.3432 -0.350364,0.7658 -0.74631,1.8687 -0.904738,2.5201 -0.191345,0.7869 -0.198719,1.0352 -0.233015,7.845 l -0.0354,7.0325 -3.4569449,0 -3.4569454,0 0.02674,-6.2946 z m 28.268393,-0.7379 c -0.0399,-7.4437 -0.02384,-7.1527 -0.479646,-8.6865 -0.08946,-0.301 -0.281998,-0.8133 -0.427857,-1.1384 -0.145858,-0.325 -0.265196,-0.6038 -0.265196,-0.6194 0,-0.1143 1.139162,-0.2696 1.9368,-0.264 0.780464,0.01 1.11159,0.053 1.706229,0.2471 1.739276,0.5666 3.026789,1.6893 3.826156,3.3366 0.638863,1.3165 0.64693,1.4182 0.64693,8.1583 l 0,5.9988 -3.452861,0 -3.452861,0 -0.0377,-7.0325 z m -34.261626,-0.5534 c 0.03637,-4.9965 0.02407,-4.8988 0.752769,-5.9967 0.914362,-1.3775 2.573428,-2.1212 4.227509,-1.895 0.310716,0.043 0.575103,0.087 0.587527,0.1 0.01243,0.012 -0.119603,0.3173 -0.2934,0.6776 -0.173798,0.3602 -0.406672,0.9825 -0.517497,1.3829 -0.192575,0.6957 -0.203065,0.9373 -0.236831,5.4547 l -0.03532,4.7267 -2.258553,0 -2.258557,0 0.03238,-4.4501 z m 42.6807,0.2282 c 0,-2.4219 -0.0417,-4.5551 -0.0978,-5.0034 -0.106127,-0.8481 -0.437598,-1.9286 -0.787977,-2.5685 -0.121534,-0.222 -0.22097,-0.4155 -0.22097,-0.43 0,-0.067 0.841747,-0.1591 1.371893,-0.1506 1.78666,0.028 3.377813,1.2037 4.016487,2.9663 0.172455,0.476 0.186102,0.7886 0.216426,4.958 l 0.03237,4.4501 -2.265215,0 -2.265216,0 0,-4.2219 z m -39.022707,-9.8266 c -1.59072,-0.4477 -2.384738,-2.2524 -1.643566,-3.7356 0.495061,-0.9907 1.460128,-1.55 2.531548,-1.467 1.716896,0.1328 2.8298451,1.7505 2.3624243,3.4339 -0.3553399,1.2797 -1.9345503,2.1391 -3.2504063,1.7687 z m 38.450182,0 c -1.285409,-0.361 -2.121855,-1.6677 -1.913048,-2.9886 0.256989,-1.6257 1.976181,-2.639 3.500087,-2.063 0.716713,0.271 1.143309,0.6593 1.483685,1.3507 0.267965,0.5443 0.289297,0.6526 0.249314,1.2649 -0.0505,0.7734 -0.272769,1.2805 -0.775142,1.7684 -0.669421,0.6501 -1.671333,0.913 -2.544896,0.6676 z m -31.129702,-2.4047 c -2.0825376,-0.7738 -3.1290662,-3.0873 -2.3331353,-5.1577 0.6429158,-1.6724 2.4362013,-2.7165 4.2276393,-2.4616 2.148629,0.3059 3.681071,2.3589 3.349652,4.4877 -0.237706,1.5268 -1.327195,2.777 -2.801676,3.2149 -0.705538,0.2095 -1.750246,0.1739 -2.44248,-0.083 z m 22.742245,0.078 c -1.866204,-0.5745 -3.093067,-2.5261 -2.763644,-4.3963 0.504415,-2.8636 3.734131,-4.2802 6.094024,-2.6729 1.045062,0.7118 1.650671,1.7851 1.73311,3.0716 0.114343,1.7843 -0.965438,3.362 -2.712408,3.963 -0.62365,0.2146 -1.714308,0.2306 -2.351082,0.035 z m -11.606993,-4.1508 c -1.971993,-0.5179 -3.665805,-2.2053 -4.205372,-4.1894 -0.257228,-0.9458 -0.218588,-2.3422 0.09115,-3.2939 1.562557,-4.8009 7.992015,-5.5132 10.643564,-1.1792 0.504391,0.8245 0.776622,1.8141 0.786456,2.8591 0.01051,1.1178 -0.117746,1.6946 -0.603836,2.7156 -0.692738,1.455 -2.212442,2.6914 -3.803081,3.094 -0.691938,0.1752 -2.23083,0.1719 -2.908881,-0.01 z"
       id="path2996"
       inkscape:connector-curvature="0" />
  </g>
</svg>
