<?xml version="1.0" encoding="UTF-8" standalone="no"?>
<!-- Created with Inkscape (http://www.inkscape.org/) -->

<svg
   xmlns:dc="http://purl.org/dc/elements/1.1/"
   xmlns:cc="http://creativecommons.org/ns#"
   xmlns:rdf="http://www.w3.org/1999/02/22-rdf-syntax-ns#"
   xmlns:svg="http://www.w3.org/2000/svg"
   xmlns="http://www.w3.org/2000/svg"
   xmlns:sodipodi="http://sodipodi.sourceforge.net/DTD/sodipodi-0.dtd"
   xmlns:inkscape="http://www.inkscape.org/namespaces/inkscape"
   width="48px"
   height="48px"
   id="svg3013"
   version="1.1"
   inkscape:version="0.48.4 r9939"
   sodipodi:docname="contact.svg">
  <defs
     id="defs3015" />
  <sodipodi:namedview
     id="base"
     pagecolor="#ffffff"
     bordercolor="#666666"
     borderopacity="1.0"
     inkscape:pageopacity="0.0"
     inkscape:pageshadow="2"
     inkscape:zoom="7"
     inkscape:cx="21.641254"
     inkscape:cy="23.357256"
     inkscape:current-layer="layer1"
     showgrid="true"
     inkscape:grid-bbox="true"
     inkscape:document-units="px"
     inkscape:window-width="1048"
     inkscape:window-height="584"
     inkscape:window-x="75"
     inkscape:window-y="103"
     inkscape:window-maximized="0" />
  <metadata
     id="metadata3018">
    <rdf:RDF>
      <cc:Work
         rdf:about="">
        <dc:format>image/svg+xml</dc:format>
        <dc:type
           rdf:resource="http://purl.org/dc/dcmitype/StillImage" />
        <dc:title></dc:title>
      </cc:Work>
    </rdf:RDF>
  </metadata>
  <g
     id="layer1"
     inkscape:label="Layer 1"
     inkscape:groupmode="layer">
    <path
       d="M 23.633756,5.7415973 C 22.703138,5.7675067 21.694261,5.9988763 20.628581,6.4371577 16.407941,8.1729721 9.8303418,13.599463 6.9314032,17.735547 3.6881991,22.362813 2.716225,25.210915 3.712209,27.179109 c 0.4728213,0.934352 1.5322759,2.25611 1.8013219,2.25611 0.069931,0 1.5230776,-1.295756 3.2281107,-2.880331 2.7781384,-2.58187 3.0634024,-2.943523 2.7822394,-3.468882 -1.27666,-2.385463 1.616787,-7.252054 5.466387,-9.202791 1.488829,-0.754449 2.957949,-0.851359 4.699488,-0.321028 0.445121,0.135548 1.22985,-0.453773 3.558056,-2.666313 L 28.235151,8.0601296 27.530674,7.3110655 C 26.520293,6.2296335 25.184787,5.6984082 23.633756,5.7415973 z m 5.564479,2.8714145 c -0.617998,-0.011988 -7.080443,6.1905502 -7.080443,6.7950842 0,0.570836 1.97418,2.612808 2.523634,2.612808 0.224352,0 1.881556,-1.36973 3.6829,-3.049762 1.801347,-1.680036 3.33914,-3.216712 3.415377,-3.415377 0.185033,-0.48219 -1.929425,-2.9308775 -2.541468,-2.9427532 z M 12.799075,24.01342 c -0.197482,0 -1.926038,1.524031 -3.8434149,3.379707 l -3.486716,3.37079 1.2306053,1.337615 c 0.6765289,0.733946 1.4224291,1.328698 1.6586429,1.328698 0.2362131,0 1.8993897,-1.36973 3.7007347,-3.049763 1.801347,-1.680036 3.341806,-3.236081 3.424295,-3.451046 0.167042,-0.4353 -2.115937,-2.916001 -2.684147,-2.916001 z m 21.018392,0.856073 c -6.168112,0 -9.941167,0.116121 -10.29072,0.303193 -0.303575,0.162469 -0.55288,0.586553 -0.55288,0.945248 0,0.578446 0.572612,0.880269 5.065101,2.684147 2.785806,1.118589 5.129309,2.046989 5.207783,2.059927 0.07847,0.01293 2.678797,-0.906313 5.778497,-2.042091 5.050911,-1.850732 5.635818,-2.133339 5.635818,-2.7109 0,-0.354447 -0.249306,-0.773862 -0.552881,-0.936331 -0.349551,-0.187072 -4.122608,-0.303193 -10.290718,-0.303193 z m -10.576078,3.99501 c -0.151927,0 -0.267522,2.707393 -0.267522,6.429471 0,6.401182 0.0028,6.431147 0.642054,6.688075 0.35313,0.141939 4.948428,0.266492 10.210463,0.276441 8.217342,0.01555 9.656825,-0.03759 10.201545,-0.41912 0.62261,-0.436095 0.633137,-0.558743 0.633137,-6.705911 0,-4.2864 -0.09261,-6.268956 -0.303193,-6.268956 -0.169191,0 -2.722825,0.798261 -5.671488,1.765652 l -5.359377,1.756736 -4.913507,-1.756736 c -2.701777,-0.967391 -5.027766,-1.765652 -5.172112,-1.765652 z"
       id="rect2998"
       inkscape:connector-curvature="0"
       sodipodi:nodetypes="ssssssssscccscsssscscccsscssssscssssssssssscccs" />
  </g>
</svg>
