<?xml version="1.0" encoding="UTF-8" standalone="no"?>
<!-- Created with Inkscape (http://www.inkscape.org/) -->

<svg
   xmlns:dc="http://purl.org/dc/elements/1.1/"
   xmlns:cc="http://creativecommons.org/ns#"
   xmlns:rdf="http://www.w3.org/1999/02/22-rdf-syntax-ns#"
   xmlns:svg="http://www.w3.org/2000/svg"
   xmlns="http://www.w3.org/2000/svg"
   xmlns:xlink="http://www.w3.org/1999/xlink"
   xmlns:sodipodi="http://sodipodi.sourceforge.net/DTD/sodipodi-0.dtd"
   xmlns:inkscape="http://www.inkscape.org/namespaces/inkscape"
   width="48"
   height="48"
   id="svg2"
   version="1.1"
   inkscape:version="0.48.4 r9939"
   sodipodi:docname="estate.svg">
  <defs
     id="defs4" />
  <sodipodi:namedview
     id="base"
     pagecolor="#ffffff"
     bordercolor="#666666"
     borderopacity="1.0"
     inkscape:pageopacity="0.0"
     inkscape:pageshadow="2"
     inkscape:zoom="2.8"
     inkscape:cx="-22.606003"
     inkscape:cy="26.860767"
     inkscape:document-units="px"
     inkscape:current-layer="layer1"
     showgrid="false"
     inkscape:window-width="1016"
     inkscape:window-height="694"
     inkscape:window-x="112"
     inkscape:window-y="261"
     inkscape:window-maximized="0" />
  <metadata
     id="metadata7">
    <rdf:RDF>
      <cc:Work
         rdf:about="">
        <dc:format>image/svg+xml</dc:format>
        <dc:type
           rdf:resource="http://purl.org/dc/dcmitype/StillImage" />
        <dc:title></dc:title>
      </cc:Work>
    </rdf:RDF>
  </metadata>
  <g
     inkscape:label="Layer 1"
     inkscape:groupmode="layer"
     id="layer1"
     transform="translate(0,-1004.3622)">
    <path
       style="fill:#000000"
       d="m 2.36248,1037.385 0,-5.8267 -0.8827198,0 -0.88272014,0 0.001201,-0.6769 0.001201,-0.6766 3.96549014,-3.0581 c 2.1810208,-1.6818 4.4273594,-3.415 4.9918655,-3.8511 l 1.0263753,-0.7934 1.896298,1.4681 c 1.042961,0.8073 1.920943,1.4677 1.951076,1.4677 0.03012,0 0.05477,-0.1853 0.05477,-0.4119 l 0,-1.3718 1.530049,0 1.530047,0 0,2.5943 0,1.6345 1.528207,1.1609 1.528209,1.1608 -0.02758,0.6473 -0.0276,0.6473 -0.85219,0.033 -0.852189,0.034 -0.03052,5.7915 -0.03052,5.7914 -4.119871,0.021 0,-4.8081 -3.8,0 0,4.8171 -8.4987234,0.031 0,-5.8267 z"
       id="path2996"
       inkscape:connector-curvature="0"
       sodipodi:nodetypes="ccccccccccsscccccccccccccccccccc" />
    <use
       x="0"
       y="0"
       xlink:href="#path2996"
       id="use3000"
       transform="translate(27.090556,6.0698888)"
       width="48"
       height="48" />
    <use
       x="0"
       y="0"
       xlink:href="#path2996"
       id="use3002"
       transform="translate(22.148752,-16.827956)"
       width="48"
       height="48" />
  </g>
</svg>
