<?xml version="1.0" encoding="UTF-8" standalone="no"?>
<!-- Created with Inkscape (http://www.inkscape.org/) -->

<svg
   xmlns:dc="http://purl.org/dc/elements/1.1/"
   xmlns:cc="http://creativecommons.org/ns#"
   xmlns:rdf="http://www.w3.org/1999/02/22-rdf-syntax-ns#"
   xmlns:svg="http://www.w3.org/2000/svg"
   xmlns="http://www.w3.org/2000/svg"
   xmlns:sodipodi="http://sodipodi.sourceforge.net/DTD/sodipodi-0.dtd"
   xmlns:inkscape="http://www.inkscape.org/namespaces/inkscape"
   width="48px"
   height="48px"
   id="svg2996"
   version="1.1"
   inkscape:version="0.48.4 r9939"
   sodipodi:docname="New document 2">
  <defs
     id="defs2998" />
  <sodipodi:namedview
     id="base"
     pagecolor="#ffffff"
     bordercolor="#666666"
     borderopacity="1.0"
     inkscape:pageopacity="0.0"
     inkscape:pageshadow="2"
     inkscape:zoom="7"
     inkscape:cx="24"
     inkscape:cy="22.857143"
     inkscape:current-layer="layer1"
     showgrid="true"
     inkscape:grid-bbox="true"
     inkscape:document-units="px"
     inkscape:window-width="866"
     inkscape:window-height="557"
     inkscape:window-x="670"
     inkscape:window-y="263"
     inkscape:window-maximized="0" />
  <metadata
     id="metadata3001">
    <rdf:RDF>
      <cc:Work
         rdf:about="">
        <dc:format>image/svg+xml</dc:format>
        <dc:type
           rdf:resource="http://purl.org/dc/dcmitype/StillImage" />
        <dc:title></dc:title>
      </cc:Work>
    </rdf:RDF>
  </metadata>
  <g
     id="layer1"
     inkscape:label="Layer 1"
     inkscape:groupmode="layer">
    <g
       id="g3086"
       transform="matrix(0.08762989,0,0,0.08762989,35.83071,44.932559)"
       style="fill:#000000;fill-opacity:1;stroke:none">
      <path
         d="m -153.35715,-64.927612 c -7.14016,-3.71353 -11.5,-10.93469 -11.5,-19.04735 0,-3.86695 0.70312,-6.10045 3.12736,-9.93428 8.21371,-12.989628 24.96356,-29.464278 32.01158,-31.485628 8.86505,-2.54246 19.0716,5.09312 22.48419,16.82056 1.52149,5.22863 1.5077,5.34204 -1.39827,11.499998 -5.47525,11.60244 -20.20621,28.1099 -28.66805,32.12531 -4.27474,2.0285 -12.17741,2.03902 -16.05681,0.0214 z m 52.75,-11.10229 c -2.3375,-0.24206 -4.25,-0.8792 -4.25,-1.41586 0,-0.53666 1.09958,-3.14566 2.44351,-5.79779 2.82126,-5.56748 5.79275,-7.16238 12.73611,-6.83591 5.97026,0.28072 9.29619,-2.06047 13.28793,-9.35365 3.9334,-7.186588 4.11889,-14.604178 0.51578,-20.625818 -1.36583,-2.28263 -10.35833,-13.22513 -19.98333,-24.31666 -9.625,-11.09153 -17.88397,-20.84242 -18.35326,-21.66865 -0.4693,-0.82623 -0.54942,-3.93416 -0.17805,-6.90651 0.61262,-4.90324 0.90493,-5.40427 3.15293,-5.40427 1.36273,0 3.75572,0.66089 5.31774,1.46864 1.56203,0.80776 12.86232,12.59793 25.11177,26.20039 23.48495,26.07899 25.41752,28.00761 30.86458,30.80165 10.62974,5.45245 23.38873,-4.68338 23.4093,-18.59652 0.0123,-8.30653 -2.941361,-12.62245 -26.6849,-38.99243 l -20.85988,-23.16734 0.67155,-5.1072 c 0.369351,-2.80895 1.05065,-5.49154 1.51399,-5.96129 0.46334,-0.46976 2.70947,-0.53867 4.9914,-0.15314 3.88245,0.65594 5.44223,2.1562 24.28058,23.3541 35.7827,40.26457 39.76764,43.45608 49.10333,39.32646 2.62051,-1.15917 6.0631,-4.01839 8.74103,-7.25979 6.31831,-7.64775 13.09958,-13.91353 15.0582,-13.91353 2.13325,0 3.32409,6.2669 2.32775,12.25 -2.39573,14.38658 -15.39934,23.75 -32.98321,23.75 l -8.44012,0 -6.92203,10.31713 c -7.954128,11.85545 -15.59129,19.30495 -20.79132,20.28048 -3.38403,0.63485 -12.31087,0.0702 -19.03553,-1.20401 -2.90061,-0.54962 -3.26994,-0.33651 -3.89857,2.24963 -1.23052,5.062218 -5.27721,13.417358 -8.421,17.386718 -4.50694,5.69047 -12.42964,9.22639 -21.30353,9.50781 -3.94501,0.12511 -9.08525,0.0294 -11.42275,-0.21264 z m -98.90771,-13.27253 c -10.0595,-2.42826 -17.18933,-15.650468 -14.40697,-26.717608 0.66855,-2.65924 2.13613,-6.32632 3.26128,-8.14906 2.64933,-4.29192 44.85732,-42.50909 49.25047,-44.59378 3.76346,-1.78588 10.14607,-2.07752 13.93555,-0.63677 4.76843,1.81296 10.45223,7.9873 12.57461,13.65987 1.12352,3.00288 2.04277,6.46481 2.04277,7.69318 0,1.22837 -1.99002,5.63295 -4.42227,9.78796 -4.49305,7.67548 -11.79465,15.03857 -36.7576,37.06716 -12.51902,11.047428 -18.12574,13.663768 -25.47784,11.889048 z m -43.26587,-37.112188 c -8.3258,-6.03118 -11.5461,-19.20727 -6.99306,-28.6126 2.31193,-4.7758 17.79053,-19.95638 32.75238,-32.12175 8.92179,-7.25425 9.59952,-7.60991 15.2845,-8.02113 11.71178,-0.84715 19.39536,4.82302 21.93925,16.19028 1.12281,5.01725 1.03894,5.48686 -2.08506,11.67615 -4.65468,9.22188 -6.63012,11.51178 -21.5496,24.97992 -18.34409,16.55961 -22.07489,18.96873 -29.37528,18.96873 -4.82622,0 -6.42771,-0.49131 -9.97313,-3.0596 z m -44.79367,-26.85054 c -5.60375,-4.05933 -8.28275,-10.02539 -8.28275,-18.44542 0,-10.41297 3.59408,-15.81157 15.98665,-24.01325 5.81258,-3.8469 8.86305,-4.35598 15.33413,-2.55907 4.65554,1.29277 11.50135,7.27268 13.33209,11.64576 2.05933,4.91911 1.70487,13.66057 -0.74896,18.47047 -2.64656,5.1877 -10.8799,13.13752 -16.34699,15.78409 -6.46793,3.13108 -14.22375,2.77593 -19.27417,-0.88258 z m 284.58885,-52.39757 c -68.1469,-75.86825 -109.21054,-120.31828 -113.14344,-122.47402 -2.95429,-1.61934 -5.04313,-2.10354 -7.19545,-1.66792 -1.66799,0.3376 -10.00771,4.34441 -18.53271,8.90403 -44.38689,23.74044 -69.95648,36.57643 -75.8872,38.09553 -11.10198,2.84368 -19.25038,-0.21389 -23.84731,-8.94835 -2.41607,-4.5907 -2.17312,-15.05557 0.46667,-20.10156 2.89056,-5.52534 6.00733,-8.24303 27.76784,-24.21236 43.08888,-31.62151 61.86116,-43.90086 86,-56.2544 12.58024,-6.43819 19.63199,-8.31687 31.06113,-8.27511 15.0219,0.0549 27.23785,5.04257 51.30689,20.94821 16.46855,10.88297 20.95443,12.7791 30.25187,12.7871 6.84598,0.006 8.33689,-0.36796 14.67938,-3.68099 5.28091,-2.75851 7.30717,-3.38836 8.04256,-2.5 0.54068,0.65315 11.42531,21.21255 24.18806,45.68755 12.76276,24.475 26.61635,50.575 30.78578,58 11.9122,21.2135 13.18433,23.93831 13.18433,28.23979 0,2.17687 -0.72461,5.48495 -1.61024,7.35128 -2.48966,5.24657 -50.11254,53.42173 -52.7396,53.35122 -1.51026,-0.0405 -8.88447,-7.55504 -24.77856,-25.25 z m -308.59819,3.51526 c -11.52039,-12.73126 -28.30307,-31.95332 -31.07555,-35.59241 -4.41189,-5.79094 -3.64034,-8.86057 13.6696,-54.38467 8.7271,-22.95176 20.29656,-53.62244 25.70992,-68.15706 10.53433,-28.28423 12.73164,-32.08521 19.30847,-33.40058 4.32565,-0.86513 7.11595,0.42929 14.58623,6.76652 4.59611,3.899 8.1418,5.97643 12.24831,7.17629 9.89356,2.89076 15.06664,1.39967 41.77961,-12.04257 15.67242,-7.88653 25.23013,-12.08446 30,-13.17661 9.51179,-2.17789 19.51835,-1.39792 27.39075,2.135 9.71919,4.36171 11.20269,7.39622 5.456,11.16027 -2.33496,1.52939 -5.0036,1.81442 -17.30374,1.84814 -13.45802,0.0369 -15.06525,0.24533 -21.54301,2.79385 -3.85,1.51469 -12.84763,5.99675 -19.99473,9.96013 -17.28126,9.58322 -26.38625,12.65705 -37.57377,12.68486 -10.50218,0.0261 -16.66379,-1.71343 -24.8806,-7.02421 -3.46554,-2.23988 -6.85129,-3.86133 -7.5239,-3.60323 -0.93448,0.35859 -33.62584,85.44526 -46.68064,121.49693 -1.54989,4.28012 -1.72635,5.97763 -0.88358,8.5 0.58886,1.76245 8.74903,11.52721 18.51171,22.1518 9.60226,10.45 17.4737,19.37427 17.49208,19.8317 0.0502,1.24792 -6.84972,9.40948 -8.48557,10.03722 -0.91044,0.34937 -4.58865,-2.95184 -10.20759,-9.16137 z m -72.77341,-41.147 c -7.15,-2.59165 -14.89745,-5.69196 -17.21656,-6.88959 -9.39381,-4.8511 -9.01472,-8.32167 5.04342,-46.17332 31.13689,-83.83626 42.23909,-112.35453 44.82435,-115.14055 3.78026,-4.07382 8.85034,-3.81434 23.38291,1.1967 19.81241,6.83161 23.2796,9.45602 22.11494,16.7394 -0.33084,2.06898 -8.4471,24.68121 -18.03613,50.24939 -9.58904,25.56818 -21.12531,56.60581 -25.63616,68.97251 -4.51085,12.3667 -9.02447,24.10252 -10.03025,26.07959 -2.00557,3.94236 -8.30572,9.97178 -10.23132,9.79164 -0.66836,-0.0625 -7.0652,-2.23413 -14.2152,-4.82577 z m 477.17498,0.78412 c -2.43808,-2.32838 -9.71969,-15.34685 -23.96429,-42.84467 -39.5137,-76.27737 -50.71142,-98.7387 -50.67525,-101.6487 0.0795,-6.39929 2.70379,-8.65749 21.22192,-18.26161 16.93657,-8.78388 20.78889,-9.28232 25.78133,-3.33575 2.9357,3.49675 20.15412,36.08813 57.50704,108.85053 20.99819,40.90387 21.16828,39.03769 -4.74861,52.1031 -7.86342,3.96417 -15.94474,7.49427 -17.95851,7.84467 -3.21753,0.55986 -4.08594,0.23164 -7.16363,-2.70757 z"
         id="path3096"
         inkscape:connector-curvature="0"
         sodipodi:nodetypes="cssssssccssssssssssssssscssssssssscssssssssssssssssssssssssssssssssssssssssssssscsssssscssssssssssssssssssssscssssssssssscssssssssss" />
    </g>
  </g>
</svg>
