<?xml version="1.0" encoding="UTF-8" standalone="no"?>
<svg
   xmlns:dc="http://purl.org/dc/elements/1.1/"
   xmlns:cc="http://creativecommons.org/ns#"
   xmlns:rdf="http://www.w3.org/1999/02/22-rdf-syntax-ns#"
   xmlns:svg="http://www.w3.org/2000/svg"
   xmlns="http://www.w3.org/2000/svg"
   xmlns:sodipodi="http://sodipodi.sourceforge.net/DTD/sodipodi-0.dtd"
   xmlns:inkscape="http://www.inkscape.org/namespaces/inkscape"
   height="48"
   id="svg6584"
   version="1.1"
   width="48"
   inkscape:version="0.48.4 r9939"
   sodipodi:docname="harbor.svg">
  <metadata
     id="metadata8">
    <rdf:RDF>
      <cc:Work
         rdf:about="">
        <dc:format>image/svg+xml</dc:format>
        <dc:type
           rdf:resource="http://purl.org/dc/dcmitype/StillImage" />
      </cc:Work>
    </rdf:RDF>
  </metadata>
  <sodipodi:namedview
     pagecolor="#ffffff"
     bordercolor="#666666"
     borderopacity="1"
     objecttolerance="10"
     gridtolerance="10"
     guidetolerance="10"
     inkscape:pageopacity="0"
     inkscape:pageshadow="2"
     inkscape:window-width="981"
     inkscape:window-height="809"
     id="namedview6"
     showgrid="false"
     inkscape:zoom="9.44"
     inkscape:cx="31.911985"
     inkscape:cy="15.858434"
     inkscape:window-x="594"
     inkscape:window-y="110"
     inkscape:window-maximized="0"
     inkscape:current-layer="svg6584" />
  <defs
     id="defs6586" />
  <g
     id="g3"
     transform="matrix(0.1899478,0,0,0.1899478,-9.44778e-5,4.961e-7)">
    <g
       id="g5">
      <path
         d="m 127.152,0.044 0,-0.044 c -0.271,0 -0.533,0.018 -0.8,0.018 C 126.085,0.018 125.821,0 125.55,0 l 0,0.044 C 71.256,0.906 27.506,45.157 27.506,99.651 c 0,73.437 86.222,143.148 98.846,153.05 12.624,-9.902 98.844,-79.611 98.844,-153.05 C 225.193,45.157 181.449,0.906 127.152,0.044 z"
         id="path7"
         inkscape:connector-curvature="0"
         sodipodi:nodetypes="ccsccsccc" />
    </g>
  </g>
  <g
     id="layer1"
     transform="matrix(0.34008375,0,0,0.34008375,7.5420895,-321.33592)"
     style="fill:#ffffff;fill-opacity:1">
    <path
       d="m 70.833333,966.94528 c -8.054166,0 -14.583333,6.52918 -14.583333,14.58336 0,1.82667 0.428417,3.59709 1.041667,5.20834 l -34.375001,34.37512 c 0,-4.1667 0,-12.5001 0,-16.6668 0,-6.24997 4.166667,-8.33331 4.166667,-8.33331 L 31.25,1000.2786 c 0,0 0,-11.1112 0,-16.66663 0,-4.16667 -2.083334,-2.08333 -4.166667,0 -12.5,12.50002 -12.5,12.38502 -12.5,20.83333 l 0,16.6668 0,12.5 c 0,2.0833 2.083333,4.1666 4.166667,4.1666 l 12.5,0 16.666667,0 c 8.448291,0 15.277791,-6.9446 20.833333,-12.5 2.083333,-2.0833 4.166333,-4.1141 0,-4.1666 l -16.666667,0 4.166667,4.1666 c 0,0 -2.083333,4.1667 -8.333333,4.1667 -4.166667,0 -12.500001,0 -16.666667,0 l 34.375,-34.37508 c 1.611333,0.61334 3.38175,1.04167 5.208333,1.04167 8.054167,0 14.583334,-6.52917 14.583334,-14.58335 0,-8.05418 -6.529167,-14.58336 -14.583334,-14.58336 z m 0,8.33335 c 3.45175,0 6.25,2.79833 6.25,6.25001 0,3.45167 -2.79825,6.25001 -6.25,6.25001 -3.45175,0 -6.25,-2.79834 -6.25,-6.25001 0,-3.45168 2.79825,-6.25001 6.25,-6.25001 z"
       id="path7602"
       style="color:#000000;fill:#ffffff;fill-opacity:1;fill-rule:nonzero;stroke:none;stroke-width:2;marker:none;visibility:visible;display:inline;overflow:visible;enable-background:accumulate"
       inkscape:connector-curvature="0" />
  </g>
</svg>
