<?xml version="1.0" encoding="UTF-8" standalone="no"?>
<!-- Generator: Adobe Illustrator 19.0.0, SVG Export Plug-In . SVG Version: 6.00 Build 0)  -->

<svg
   xmlns:dc="http://purl.org/dc/elements/1.1/"
   xmlns:cc="http://creativecommons.org/ns#"
   xmlns:rdf="http://www.w3.org/1999/02/22-rdf-syntax-ns#"
   xmlns:svg="http://www.w3.org/2000/svg"
   xmlns="http://www.w3.org/2000/svg"
   xmlns:sodipodi="http://sodipodi.sourceforge.net/DTD/sodipodi-0.dtd"
   xmlns:inkscape="http://www.inkscape.org/namespaces/inkscape"
   version="1.1"
   id="Layer_1"
   x="0px"
   y="0px"
   viewBox="0 0 48 48"
   xml:space="preserve"
   inkscape:version="0.48.4 r9939"
   width="100%"
   height="100%"
   sodipodi:docname="nemovitost_point.svg"><metadata
     id="metadata43"><rdf:RDF><cc:Work
         rdf:about=""><dc:format>image/svg+xml</dc:format><dc:type
           rdf:resource="http://purl.org/dc/dcmitype/StillImage" /></cc:Work></rdf:RDF></metadata><defs
     id="defs41" /><sodipodi:namedview
     pagecolor="#ffffff"
     bordercolor="#666666"
     borderopacity="1"
     objecttolerance="10"
     gridtolerance="10"
     guidetolerance="10"
     inkscape:pageopacity="0"
     inkscape:pageshadow="2"
     inkscape:window-width="1466"
     inkscape:window-height="797"
     id="namedview39"
     showgrid="false"
     inkscape:zoom="5.2829929"
     inkscape:cx="-22.637804"
     inkscape:cy="9.7489565"
     inkscape:window-x="0"
     inkscape:window-y="25"
     inkscape:window-maximized="0"
     inkscape:current-layer="Layer_1" /><g
     id="g3"
     transform="matrix(0.1899478,0,0,0.1899478,-9.44778e-5,4.961e-7)"><g
       id="g5"><path
         d="m 127.152,0.044 0,-0.044 c -0.271,0 -0.533,0.018 -0.8,0.018 C 126.085,0.018 125.821,0 125.55,0 l 0,0.044 C 71.256,0.906 27.506,45.157 27.506,99.651 c 0,73.437 86.222,143.148 98.846,153.05 12.624,-9.902 98.844,-79.611 98.844,-153.05 C 225.193,45.157 181.449,0.906 127.152,0.044 z"
         id="path7"
         inkscape:connector-curvature="0"
         sodipodi:nodetypes="ccsccsccc" /></g></g><g
     id="g9"
     transform="translate(0,-204.701)" /><g
     id="g11"
     transform="translate(0,-204.701)" /><g
     id="g13"
     transform="translate(0,-204.701)" /><g
     id="g15"
     transform="translate(0,-204.701)" /><g
     id="g17"
     transform="translate(0,-204.701)" /><g
     id="g19"
     transform="translate(0,-204.701)" /><g
     id="g21"
     transform="translate(0,-204.701)" /><g
     id="g23"
     transform="translate(0,-204.701)" /><g
     id="g25"
     transform="translate(0,-204.701)" /><g
     id="g27"
     transform="translate(0,-204.701)" /><g
     id="g29"
     transform="translate(0,-204.701)" /><g
     id="g31"
     transform="translate(0,-204.701)" /><g
     id="g33"
     transform="translate(0,-204.701)" /><g
     id="g35"
     transform="translate(0,-204.701)" /><g
     id="g37"
     transform="translate(0,-204.701)" /><path
     style="font-size:medium;font-style:normal;font-variant:normal;font-weight:normal;font-stretch:normal;text-indent:0;text-align:start;text-decoration:none;line-height:normal;letter-spacing:normal;word-spacing:normal;text-transform:none;direction:ltr;block-progression:tb;writing-mode:lr-tb;text-anchor:start;baseline-shift:baseline;color:#000000;fill:#ffffff;fill-opacity:1;stroke:none;stroke-width:1.19999992999999994;marker:none;visibility:visible;display:inline;overflow:visible;enable-background:accumulate;font-family:Sans;-inkscape-font-specification:Sans"
     d="M 23.53125,8.28125 C 23.017227,8.2812293 22.513471,8.4858827 22.125,8.875 l -4.03125,4 c -0.229074,0.220893 -0.236518,0.6303 -0.01563,0.859375 0.220893,0.229074 0.630301,0.236518 0.859375,0.01563 l 0.46875,-0.4375 c -0.01729,0.05039 -0.02783,0.103088 -0.03125,0.15625 l 0,3.375 c 0,1.099185 0.90005,2 2,2 l 4.28125,0 c 1.098655,0 2.03125,-0.899611 2.03125,-2 l 0,-3.375 c 0.0043,-0.04152 0.0043,-0.08348 0,-0.125 L 28.125,13.75 c 0.229074,0.220893 0.638482,0.213449 0.859375,-0.01563 0.220893,-0.22907 0.213449,-0.638477 -0.01563,-0.85937 l -4.03125,-4 C 24.548378,8.4868455 24.045273,8.2812707 23.53125,8.28125 z m -10.375,6.0625 c -0.513693,1.7e-5 -1.017694,0.205517 -1.40625,0.59375 l -4.03125,4.03125 c -0.2613246,0.210586 -0.2851054,0.654225 -0.04779,0.89154 0.237315,0.237315 0.6809547,0.213535 0.8915403,-0.04779 l 0.5,-0.5 c -0.027886,0.07988 -0.038615,0.16571 -0.03125,0.25 l 0,3.34375 c 0,1.099716 0.9005802,2 1.9999997,2 l 4.28125,0 c 1.098891,0 2,-0.899346 2,-2 l 0,-3.34375 c 0.0098,-0.06199 0.0098,-0.125514 0,-0.1875 l 0.4375,0.4375 c 0.220893,0.229074 0.6303,0.236518 0.859375,0.01563 0.229074,-0.220893 0.236518,-0.630301 0.01563,-0.859375 L 14.59375,14.9375 c -0.388915,-0.387947 -0.923807,-0.593767 -1.4375,-0.59375 z m 21.6875,0 c -0.513743,0 -1.048585,0.205803 -1.4375,0.59375 L 29.375,18.96875 c -0.220893,0.229074 -0.213449,0.638482 0.01563,0.859375 0.229075,0.220893 0.638482,0.213449 0.859375,-0.01563 l 0.46875,-0.4375 c -0.02027,0.06031 -0.03086,0.123871 -0.03125,0.1875 l 0,3.34375 c 0,1.100185 0.90111,2 2,2 l 4.28125,0 c 1.099419,0 2,-0.899815 2,-2 l 0,-3.34375 c 0.0098,-0.06199 0.0098,-0.125514 0,-0.1875 l 0.46875,0.4375 c 0.210586,0.261325 0.654225,0.285105 0.89154,0.04779 0.237315,-0.237315 0.213535,-0.680954 -0.04779,-0.89154 L 36.25,14.9375 c -0.388915,-0.387947 -0.892507,-0.59375 -1.40625,-0.59375 z m -11.3125,6.0625 C 23.017507,20.406283 22.513556,20.611767 22.125,21 l -4.03125,4.03125 c -0.261325,0.210586 -0.285105,0.654225 -0.04779,0.89154 0.237315,0.237315 0.680954,0.213535 0.89154,-0.04779 l 0.46875,-0.4375 c -0.02027,0.06031 -0.03086,0.123871 -0.03125,0.1875 l 0,3.34375 c 0,1.09945 0.90005,2 2,2 l 4.28125,0 c 1.09889,0 2.03125,-0.899611 2.03125,-2 l 0,-3.34375 c -5.43e-4,-0.06362 -0.01113,-0.127143 -0.03125,-0.1875 L 28.125,25.875 c 0.210586,0.261325 0.654225,0.285105 0.89154,0.04779 0.237315,-0.237315 0.213535,-0.680954 -0.04779,-0.89154 L 24.9375,21 c -0.389275,-0.387662 -0.892507,-0.593783 -1.40625,-0.59375 z"
     id="path4097"
     inkscape:connector-curvature="0"
     sodipodi:nodetypes="sccscccsssscccsccssccscccsssscccsccssccscccsssscccsccssccscccsssscccsccs" /></svg>