<?xml version="1.0" encoding="utf-8"?>
<!-- Generator: Adobe Illustrator 16.0.0, SVG Export Plug-In . SVG Version: 6.00 Build 0)  -->
<!DOCTYPE svg PUBLIC "-//W3C//DTD SVG 1.1//EN" "http://www.w3.org/Graphics/SVG/1.1/DTD/svg11.dtd">
<svg version="1.1" id="Vrstva_1" xmlns="http://www.w3.org/2000/svg" xmlns:xlink="http://www.w3.org/1999/xlink" x="0px" y="0px"
	 width="91.333px" height="85.167px" viewBox="0 0 91.333 85.167" enable-background="new 0 0 91.333 85.167" xml:space="preserve">
<style>
	/* <![CDATA[ */
	path {
		stroke: gray;
		stroke-width: 3;
	}
	/* ]]> */
</style>

<g>
	<g>
		<g>
			
				<path fill="none" stroke-width="1.5" stroke-linecap="round" stroke-linejoin="round" stroke-miterlimit="10" d="
				M52.423,21.168v7.367c0,1.704-1.383,3.083-3.084,3.083h-9.42c-1.705,0-3.084-1.38-3.084-3.083v-7.367"/>
			
				<path fill="none" stroke-width="1.5" stroke-linecap="round" stroke-linejoin="round" stroke-miterlimit="10" d="
				M33.607,20.808l8.844-8.844c1.203-1.205,3.154-1.204,4.361,0l8.838,8.842"/>
			
				<path fill="none" stroke-width="1.5" stroke-linecap="round" stroke-linejoin="round" stroke-miterlimit="10" d="
				M52.423,47.833v7.365c0,1.704-1.383,3.084-3.084,3.084h-9.42c-1.705,0-3.084-1.38-3.084-3.084v-7.365"/>
			
				<path fill="none" stroke-width="1.5" stroke-linecap="round" stroke-linejoin="round" stroke-miterlimit="10" d="
				M33.607,47.471l8.844-8.845c1.203-1.202,3.154-1.202,4.361,0l8.838,8.844"/>
		</g>
		<g>
			
				<path fill="none" stroke-width="1.5" stroke-linecap="round" stroke-linejoin="round" stroke-miterlimit="10" d="
				M29.677,34.503v7.363c0,1.705-1.383,3.085-3.084,3.085h-9.422c-1.703,0-3.082-1.38-3.082-3.085v-7.363"/>
			
				<path fill="none" stroke-width="1.5" stroke-linecap="round" stroke-linejoin="round" stroke-miterlimit="10" d="
				M10.859,34.14l8.844-8.845c1.203-1.202,3.154-1.202,4.359,0l8.842,8.844"/>
		</g>
		<g>
			
				<path fill="none" stroke-width="1.5" stroke-linecap="round" stroke-linejoin="round" stroke-miterlimit="10" d="
				M77.25,34.503v7.363c0,1.705-1.381,3.085-3.084,3.085h-9.424c-1.701,0-3.082-1.38-3.082-3.085v-7.363"/>
			
				<path fill="none" stroke-width="1.5" stroke-linecap="round" stroke-linejoin="round" stroke-miterlimit="10" d="
				M58.433,34.14l8.84-8.845c1.205-1.202,3.156-1.202,4.361,0l8.842,8.844"/>
		</g>
	</g>
</g>
</svg>
