<?xml version="1.0" encoding="UTF-8" standalone="no"?>
<!-- Generator: Adobe Illustrator 19.0.0, SVG Export Plug-In . SVG Version: 6.00 Build 0)  -->

<svg
   xmlns:dc="http://purl.org/dc/elements/1.1/"
   xmlns:cc="http://creativecommons.org/ns#"
   xmlns:rdf="http://www.w3.org/1999/02/22-rdf-syntax-ns#"
   xmlns:svg="http://www.w3.org/2000/svg"
   xmlns="http://www.w3.org/2000/svg"
   xmlns:sodipodi="http://sodipodi.sourceforge.net/DTD/sodipodi-0.dtd"
   xmlns:inkscape="http://www.inkscape.org/namespaces/inkscape"
   version="1.1"
   id="Layer_1"
   x="0px"
   y="0px"
   viewBox="0 0 48 48"
   xml:space="preserve"
   inkscape:version="0.48.4 r9939"
   width="100%"
   height="100%"
   sodipodi:docname="podpora_point.svg"><metadata
     id="metadata43"><rdf:RDF><cc:Work
         rdf:about=""><dc:format>image/svg+xml</dc:format><dc:type
           rdf:resource="http://purl.org/dc/dcmitype/StillImage" /></cc:Work></rdf:RDF></metadata><defs
     id="defs41" /><sodipodi:namedview
     pagecolor="#ffffff"
     bordercolor="#666666"
     borderopacity="1"
     objecttolerance="10"
     gridtolerance="10"
     guidetolerance="10"
     inkscape:pageopacity="0"
     inkscape:pageshadow="2"
     inkscape:window-width="1530"
     inkscape:window-height="770"
     id="namedview39"
     showgrid="false"
     inkscape:zoom="8"
     inkscape:cx="14.416245"
     inkscape:cy="24.904281"
     inkscape:window-x="0"
     inkscape:window-y="25"
     inkscape:window-maximized="0"
     inkscape:current-layer="Layer_1" /><g
     id="g9"
     transform="translate(0,-204.701)" /><g
     id="g11"
     transform="translate(0,-204.701)" /><g
     id="g13"
     transform="translate(0,-204.701)" /><g
     id="g15"
     transform="translate(0,-204.701)" /><g
     id="g17"
     transform="translate(0,-204.701)" /><g
     id="g19"
     transform="translate(0,-204.701)" /><g
     id="g21"
     transform="translate(0,-204.701)" /><g
     id="g23"
     transform="translate(0,-204.701)" /><g
     id="g25"
     transform="translate(0,-204.701)" /><g
     id="g27"
     transform="translate(0,-204.701)" /><g
     id="g29"
     transform="translate(0,-204.701)" /><g
     id="g31"
     transform="translate(0,-204.701)" /><g
     id="g33"
     transform="translate(0,-204.701)" /><g
     id="g35"
     transform="translate(0,-204.701)" /><g
     id="g37"
     transform="translate(0,-204.701)" /><g
     transform="matrix(0.1899478,0,0,0.1899478,0.62129581,9.9219999e-7)"
     id="g4330"><g
       id="g4332"><path
         sodipodi:nodetypes="ccsccsccc"
         inkscape:connector-curvature="0"
         id="path4334"
         d="m 127.152,0.044 0,-0.044 c -0.271,0 -0.533,0.018 -0.8,0.018 C 126.085,0.018 125.821,0 125.55,0 l 0,0.044 C 71.256,0.906 27.506,45.157 27.506,99.651 c 0,73.437 86.222,143.148 98.846,153.05 12.624,-9.902 98.844,-79.611 98.844,-153.05 C 225.193,45.157 181.449,0.906 127.152,0.044 z" /></g></g><path
     style="font-size:medium;font-style:normal;font-variant:normal;font-weight:normal;font-stretch:normal;text-indent:0;text-align:start;text-decoration:none;line-height:normal;letter-spacing:normal;word-spacing:normal;text-transform:none;direction:ltr;block-progression:tb;writing-mode:lr-tb;text-anchor:start;baseline-shift:baseline;color:#000000;fill:#ffffff;fill-opacity:1;stroke:none;stroke-width:0.25;marker:none;visibility:visible;display:inline;overflow:visible;enable-background:accumulate;font-family:Sans;-inkscape-font-specification:Sans"
     d="m 24.756035,9.55079 c -0.137657,0.01007 -0.237769,0.011088 -0.328216,0.041023 -0.29964,0.09911 -0.644263,0.227583 -0.984647,0.41027 -0.08273,0.111284 -0.198218,0.197901 -0.328214,0.246161 -0.778084,0.458761 -1.592399,1.037559 -2.256481,1.641076 -0.529746,0.481435 -0.969649,0.94596 -1.230808,1.312862 -0.115212,0.161868 -0.167834,0.284301 -0.205133,0.369242 0.15272,0.323347 0.407266,0.787206 0.902592,0.943619 0.539335,0.170312 1.533741,0.08557 3.323179,-1.312861 0.108815,-0.07359 0.238038,-0.116661 0.369243,-0.123081 l 2.25648,-0.246162 c 0.307973,-0.02903 0.62383,0.163992 0.738485,0.451297 0,0 1.317892,3.659669 5.333498,4.800149 0.121041,0.02539 0.235281,0.08251 0.328217,0.164108 0,0 3.121806,3.179194 4.471932,4.595014 0.01341,0.01408 0.02789,0.02687 0.04102,0.04102 l 5.277034,-2.80128 C 39.712135,16.346233 39.24667,14.608895 39.352397,10.701895 l -5.734554,2.172068 c -0.197682,0.07773 -0.429791,0.06226 -0.615403,-0.04103 0,0 -1.626503,-1.022061 -3.569343,-1.928265 C 28.461678,10.451562 27.395848,10.008885 26.47916,9.755911 25.791645,9.5661799 25.168997,9.5207915 24.756029,9.5507756 z M 11.880659,9.84034 c -0.508818,2.611353 -1.9112786,6.697423 -4.7677694,8.901278 l 5.8684194,4.266001 c 0.225453,-0.275385 0.500082,-0.529188 0.820539,-0.738483 0.604462,-0.393877 1.344079,-0.455691 2.010319,-0.164108 0.307559,0.134604 0.596792,0.361576 0.820538,0.65643 0.212978,-0.162658 0.424358,-0.295824 0.656431,-0.410269 0.597422,-0.294591 1.389526,-0.34181 2.051345,0.08206 0.41825,0.267868 0.698976,0.764826 0.820539,1.353887 0.591151,-0.03176 1.187978,0.121519 1.641077,0.492325 0.401878,0.328885 0.644833,0.800723 0.738484,1.353887 0.04061,0.0064 0.08319,-0.0091 0.123081,0 0.537239,0.122727 1.007306,0.452556 1.312861,0.94362 0.674616,1.081857 0.739809,2.241732 0.656431,3.241125 0.937061,1.174792 2.306931,1.421483 3.118045,1.271836 0.408378,-0.07535 0.602538,-0.2621 0.615404,-0.28719 0.0064,-0.0126 0.01132,-0.0018 0,-0.04102 -0.01132,-0.03934 -0.04152,-0.13063 -0.205134,-0.28719 -1.232727,-1.179821 -2.51045,-2.755136 -2.51045,-2.755136 -0.42606,-0.335283 -0.562013,-1.063775 -0.03322,-1.183446 0.234478,-0.04592 0.489824,0.03387 0.656431,0.205134 0,0 1.434806,1.333082 2.625722,2.461614 0.04367,0.02308 0.08498,0.05062 0.123081,0.08206 0.01892,0.01801 0.02224,0.02313 0.04102,0.04102 0.04367,0.02308 0.08498,0.05062 0.123081,0.08206 0.689093,0.78879 1.252955,0.625027 1.641078,0.287188 0.194062,-0.168919 0.318106,-0.385659 0.328214,-0.615403 0.01007,-0.229745 -0.07476,-0.49974 -0.410269,-0.820539 -1.2296,-1.17806 -3.364206,-3.159073 -3.364206,-3.159073 -0.426061,-0.335283 -0.241604,-1.152163 0.287188,-1.271834 0.24658,-0.06072 0.523012,0.02058 0.697456,0.205135 0,0 1.891068,1.751435 3.159073,2.953938 0.04369,0.02305 0.085,0.05059 0.123081,0.08206 0.01643,0.01564 0.02485,0.0256 0.04102,0.04103 0.01539,0.02645 0.0291,0.05387 0.04102,0.08206 0.0082,0.008 0.03291,-0.0077 0.04102,0 3.88e-4,0.01367 3.88e-4,0.02736 0,0.04102 0.68864,0.789289 1.253381,0.624817 1.641077,0.287189 0.193847,-0.168814 0.318237,-0.426496 0.328214,-0.656431 0.01007,-0.229934 -0.03334,-0.458322 -0.369242,-0.779512 -0.01526,-0.01463 -0.02548,-0.02616 -0.04102,-0.04102 -0.06018,-0.03296 -0.115623,-0.07454 -0.164108,-0.123082 -0.0081,-0.0076 0.0081,-0.03336 0,-0.04102 -0.01422,-0.01311 -0.02791,-0.0268 -0.04102,-0.04102 -1.252476,-1.192022 -3.159074,-2.953947 -3.159074,-2.953947 -0.379955,-0.354946 -0.178026,-1.112181 0.328216,-1.230807 0.234478,-0.04592 0.489824,0.03387 0.656431,0.205134 0,0 1.891123,1.751493 3.159072,2.953939 0.08127,0.05362 0.151518,0.123862 0.205133,0.205134 0.0082,0.008 0.03291,-0.0077 0.04102,0 3.89e-4,0.01367 3.89e-4,0.02736 0,0.04102 0.601077,0.60878 1.40411,0.511035 1.846212,0.205134 0.221045,-0.15295 0.311908,-0.335874 0.328214,-0.533349 0.0072,-0.0879 -0.0012,-0.200331 -0.04102,-0.328216 -0.181702,-0.11664 -0.305974,-0.318593 -0.328203,-0.533364 -0.01398,-0.0154 -0.02601,-0.02529 -0.04103,-0.04102 -1.310365,-1.374122 -4.374558,-4.455956 -4.430906,-4.512959 -0.01912,-0.0061 -0.022,-0.03486 -0.04102,-0.04103 -3.960188,-1.289295 -5.395407,-4.240163 -5.702741,-4.964257 l -1.682104,0.205134 c -1.831163,1.344896 -3.309706,1.736013 -4.389881,1.394916 -1.142131,-0.360663 -1.67285,-1.34447 -1.887236,-1.846211 -0.159687,-0.37372 -0.05708,-0.68412 0.04102,-0.943619 0.09808,-0.2595 0.233342,-0.48992 0.410269,-0.738485 0.353854,-0.497129 0.84964,-1.02619 1.435942,-1.559023 0.118249,-0.107454 0.244585,-0.221666 0.369242,-0.328215 -2.214307,0.467929 -4.266798,1.476969 -4.266798,1.476969 -0.208724,0.09081 -0.460641,0.07506 -0.656431,-0.04103 z m 2.590216,13.541243 c -0.631248,0.547097 -0.819141,0.989366 -0.96255,1.802018 0.08493,0.462451 0.331684,0.880579 0.539684,1.065152 0.09568,0.0849 0.221112,0.156926 0.369243,0.205135 0.02638,-0.152379 0.03374,-0.306271 0.08206,-0.451296 0.269025,-0.806442 0.632549,-1.532639 1.0667,-2.1334 -0.05072,-0.278465 -0.150851,-0.422705 -0.317166,-0.49549 -0.250517,-0.08128 -0.509132,-0.0782 -0.777971,0.0079 z m 3.802907,0.200414 c -0.115177,0.0013 -0.245183,0.0411 -0.328215,0.08206 -0.300822,0.148348 -0.63766,0.401359 -0.94362,0.738485 -0.05543,0.114823 -0.141166,0.214849 -0.246161,0.287189 -0.357172,0.466263 -0.670936,1.069734 -0.902592,1.764157 -0.04419,0.132604 -0.0772,0.287489 -0.08206,0.451296 0.104931,0.169119 0.13543,0.382643 0.08206,0.574376 0.03951,0.150541 0.08713,0.289428 0.164108,0.41027 0.177151,0.27813 0.434226,0.473901 0.861565,0.533349 0.01207,-0.284066 0.08642,-0.568791 0.164107,-0.861564 0.133183,-0.501898 0.353944,-1.016217 0.615403,-1.517997 0.261459,-0.501777 0.555355,-0.963135 0.902592,-1.353887 0.07346,-0.08267 0.170131,-0.126272 0.246162,-0.205135 0.03985,-0.562333 -0.1193,-0.739288 -0.246162,-0.820539 -0.07165,-0.0459 -0.172008,-0.0833 -0.287187,-0.08206 z m 1.764156,1.682103 c -0.05766,0.06655 -0.127551,0.122464 -0.205134,0.164109 -0.06894,0.05499 -0.126258,0.116367 -0.205135,0.205134 -0.237683,0.267468 -0.480266,0.649878 -0.697457,1.0667 -0.21719,0.416821 -0.394159,0.860856 -0.492323,1.230808 -0.09817,0.369951 -0.08493,0.688005 -0.08206,0.697457 0.142074,0.468732 0.364932,0.91228 0.615403,1.148753 0.164735,0.155527 0.33788,0.276064 0.615404,0.28719 -0.09794,-2.077421 0.467167,-3.445734 1.435943,-4.102693 0.02684,-0.0182 0.05458,-0.02412 0.08206,-0.04102 -0.04955,-0.278823 -0.146247,-0.451585 -0.246161,-0.53335 -0.133219,-0.109014 -0.364711,-0.191363 -0.77951,-0.12308 0.0023,-3.93e-4 -0.03701,-0.0027 -0.04102,-6e-6 z m 2.092373,1.764158 c -0.08348,0.02313 -0.192571,0.05892 -0.287188,0.123081 -0.378466,0.256651 -0.89113,1.094908 -0.779512,2.953938 0.0065,0.108085 0.02035,0.170292 0.205136,0.287188 0.184783,0.116897 0.492579,0.215769 0.820537,0.246161 0.327959,0.03039 0.673204,-0.01408 0.861566,-0.08206 0.09418,-0.03399 0.114326,-0.03863 0.123081,-0.04102 0.153227,-1.10064 0.252364,-2.228018 -0.328216,-3.159073 -0.181156,-0.291139 -0.364938,-0.397592 -0.615404,-0.328215 z"
     id="path4336"
     inkscape:connector-curvature="0"
     sodipodi:nodetypes="ccccsccsccccccccccccssccccccsccscscccccccccccccccscccccccccccsccccccccccccccccccccccsscscccccccsccccccccccccccsssccccccsccscccccccccscccccc" /></svg>