<?xml version="1.0" encoding="UTF-8" standalone="no"?>
<!-- Generator: Adobe Illustrator 19.0.0, SVG Export Plug-In . SVG Version: 6.00 Build 0)  -->

<svg
   xmlns:dc="http://purl.org/dc/elements/1.1/"
   xmlns:cc="http://creativecommons.org/ns#"
   xmlns:rdf="http://www.w3.org/1999/02/22-rdf-syntax-ns#"
   xmlns:svg="http://www.w3.org/2000/svg"
   xmlns="http://www.w3.org/2000/svg"
   xmlns:sodipodi="http://sodipodi.sourceforge.net/DTD/sodipodi-0.dtd"
   xmlns:inkscape="http://www.inkscape.org/namespaces/inkscape"
   version="1.1"
   id="Layer_1"
   x="0px"
   y="0px"
   viewBox="0 0 48 48"
   xml:space="preserve"
   inkscape:version="0.48.4 r9939"
   width="100%"
   height="100%"
   sodipodi:docname="airport (copy).svg"><metadata
     id="metadata43"><rdf:RDF><cc:Work
         rdf:about=""><dc:format>image/svg+xml</dc:format><dc:type
           rdf:resource="http://purl.org/dc/dcmitype/StillImage" /></cc:Work></rdf:RDF></metadata><defs
     id="defs41" /><sodipodi:namedview
     pagecolor="#ffffff"
     bordercolor="#666666"
     borderopacity="1"
     objecttolerance="10"
     gridtolerance="10"
     guidetolerance="10"
     inkscape:pageopacity="0"
     inkscape:pageshadow="2"
     inkscape:window-width="1098"
     inkscape:window-height="639"
     id="namedview39"
     showgrid="false"
     inkscape:zoom="3.7356401"
     inkscape:cx="-28.568823"
     inkscape:cy="11.716051"
     inkscape:window-x="0"
     inkscape:window-y="25"
     inkscape:window-maximized="0"
     inkscape:current-layer="Layer_1" /><g
     id="g3"
     transform="matrix(0.1899478,0,0,0.1899478,-9.44778e-5,4.961e-7)"><g
       id="g5"><path
         d="m 127.152,0.044 0,-0.044 c -0.271,0 -0.533,0.018 -0.8,0.018 C 126.085,0.018 125.821,0 125.55,0 l 0,0.044 C 71.256,0.906 27.506,45.157 27.506,99.651 c 0,73.437 86.222,143.148 98.846,153.05 12.624,-9.902 98.844,-79.611 98.844,-153.05 C 225.193,45.157 181.449,0.906 127.152,0.044 z"
         id="path7"
         inkscape:connector-curvature="0"
         sodipodi:nodetypes="ccsccsccc" /></g></g><g
     id="g9"
     transform="translate(0,-204.701)" /><g
     id="g11"
     transform="translate(0,-204.701)" /><g
     id="g13"
     transform="translate(0,-204.701)" /><g
     id="g15"
     transform="translate(0,-204.701)" /><g
     id="g17"
     transform="translate(0,-204.701)" /><g
     id="g19"
     transform="translate(0,-204.701)" /><g
     id="g21"
     transform="translate(0,-204.701)" /><g
     id="g23"
     transform="translate(0,-204.701)" /><g
     id="g25"
     transform="translate(0,-204.701)" /><g
     id="g27"
     transform="translate(0,-204.701)" /><g
     id="g29"
     transform="translate(0,-204.701)" /><g
     id="g31"
     transform="translate(0,-204.701)" /><g
     id="g33"
     transform="translate(0,-204.701)" /><g
     id="g35"
     transform="translate(0,-204.701)" /><g
     id="g37"
     transform="translate(0,-204.701)" /></svg>