<?xml version="1.0" encoding="UTF-8" standalone="no"?>
<!-- Generator: Adobe Illustrator 19.0.0, SVG Export Plug-In . SVG Version: 6.00 Build 0)  -->

<svg
   xmlns:dc="http://purl.org/dc/elements/1.1/"
   xmlns:cc="http://creativecommons.org/ns#"
   xmlns:rdf="http://www.w3.org/1999/02/22-rdf-syntax-ns#"
   xmlns:svg="http://www.w3.org/2000/svg"
   xmlns="http://www.w3.org/2000/svg"
   xmlns:sodipodi="http://sodipodi.sourceforge.net/DTD/sodipodi-0.dtd"
   xmlns:inkscape="http://www.inkscape.org/namespaces/inkscape"
   version="1.1"
   id="Layer_1"
   x="0px"
   y="0px"
   viewBox="0 0 48 48"
   xml:space="preserve"
   inkscape:version="0.48.4 r9939"
   width="100%"
   height="100%"
   sodipodi:docname="science.svg"><metadata
     id="metadata43"><rdf:RDF><cc:Work
         rdf:about=""><dc:format>image/svg+xml</dc:format><dc:type
           rdf:resource="http://purl.org/dc/dcmitype/StillImage" /></cc:Work></rdf:RDF></metadata><defs
     id="defs41" /><sodipodi:namedview
     pagecolor="#ffffff"
     bordercolor="#666666"
     borderopacity="1"
     objecttolerance="10"
     gridtolerance="10"
     guidetolerance="10"
     inkscape:pageopacity="0"
     inkscape:pageshadow="2"
     inkscape:window-width="1006"
     inkscape:window-height="597"
     id="namedview39"
     showgrid="false"
     inkscape:zoom="20.85965"
     inkscape:cx="32.584347"
     inkscape:cy="15.437479"
     inkscape:window-x="788"
     inkscape:window-y="262"
     inkscape:window-maximized="0"
     inkscape:current-layer="Layer_1" /><g
     id="g3"
     transform="matrix(0.08756306,0,0,0.08756306,1.5839004,1.5839442)"><g
       id="g5"><path
         d="m 443.04,51.311 c -35.402,0 -64.204,28.802 -64.204,64.204 0,6.474 0.973,12.725 2.763,18.622 l -81.022,54.892 c -10.922,-11.327 -25.331,-19.256 -41.488,-22.046 l 0,-69.395 C 280.233,91.896 295.844,72.564 295.844,49.648 295.843,22.271 273.572,0 246.195,0 c -27.377,0 -49.648,22.271 -49.648,49.648 0,22.918 15.611,42.247 36.755,47.94 l 0,69.392 c -31.362,5.415 -56.155,30.208 -61.57,61.57 l -69.392,0 C 96.648,207.407 77.316,191.795 54.4,191.795 c -27.377,0 -49.648,22.271 -49.648,49.648 0,27.377 22.271,49.648 49.648,49.648 22.918,0 42.247,-15.611 47.94,-36.755 l 69.392,0 c 3.333,19.307 14.001,36.134 29.039,47.477 l -43.116,84.137 c -41.091,-11.446 -81.406,19.696 -81.406,61.844 0,35.402 28.802,64.204 64.204,64.204 35.402,0 64.204,-28.802 64.204,-64.204 0,-20.222 -9.407,-38.28 -24.064,-50.056 l 43.11,-84.127 c 22.089,6.899 46.509,3.359 66.006,-10.42 l 49.083,49.081 c -10.831,18.728 -8.529,43.449 7.918,59.898 19.405,19.402 50.809,19.405 70.212,0 19.407,-19.404 19.406,-50.807 0.002,-70.213 -16.411,-16.414 -41.128,-18.775 -59.898,-7.92 l -49.081,-49.083 c 15.505,-21.938 18.142,-50.283 7.122,-74.598 L 394,156.886 c 11.786,13.951 29.394,22.833 49.043,22.833 35.402,0 64.204,-28.802 64.204,-64.204 C 507.244,80.113 478.442,51.311 443.04,51.311 z M 140.453,486.213 c -21.183,0 -38.417,-17.232 -38.417,-38.417 0,-21.185 17.233,-38.417 38.417,-38.417 21.183,0 38.417,17.232 38.417,38.417 0.001,21.185 -17.234,38.417 -38.417,38.417 z M 222.335,49.648 c 0,-13.156 10.705,-23.861 23.861,-23.861 13.156,0 23.861,10.705 23.861,23.861 0,13.156 -10.704,23.862 -23.86,23.862 -13.157,0 -23.862,-10.705 -23.862,-23.862 z m 23.862,241.596 c -27.46,0 -49.8,-22.34 -49.8,-49.8 0,-27.46 22.34,-49.8 49.8,-49.8 27.46,0 49.8,22.34 49.8,49.8 -0.001,27.46 -22.341,49.8 -49.8,49.8 z m 118.748,68.949 c 9.325,-9.328 24.418,-9.326 33.743,0 9.328,9.325 9.328,24.417 0,33.745 -9.326,9.326 -24.418,9.326 -33.743,-0.002 -0.002,0 -0.002,0 -0.002,0 -9.326,-9.327 -9.326,-24.419 0.002,-33.743 z"
         id="path7"
         inkscape:connector-curvature="0"
         sodipodi:nodetypes="sscccccssccccsssccccssscccccccccccscsssscssssssssscsccsccc" /></g></g><g
     id="g9"
     transform="translate(0,-464)" /><g
     id="g11"
     transform="translate(0,-464)" /><g
     id="g13"
     transform="translate(0,-464)" /><g
     id="g15"
     transform="translate(0,-464)" /><g
     id="g17"
     transform="translate(0,-464)" /><g
     id="g19"
     transform="translate(0,-464)" /><g
     id="g21"
     transform="translate(0,-464)" /><g
     id="g23"
     transform="translate(0,-464)" /><g
     id="g25"
     transform="translate(0,-464)" /><g
     id="g27"
     transform="translate(0,-464)" /><g
     id="g29"
     transform="translate(0,-464)" /><g
     id="g31"
     transform="translate(0,-464)" /><g
     id="g33"
     transform="translate(0,-464)" /><g
     id="g35"
     transform="translate(0,-464)" /><g
     id="g37"
     transform="translate(0,-464)" /></svg>