<?xml version="1.0" encoding="UTF-8" standalone="no"?>
<svg
   xmlns:dc="http://purl.org/dc/elements/1.1/"
   xmlns:cc="http://creativecommons.org/ns#"
   xmlns:rdf="http://www.w3.org/1999/02/22-rdf-syntax-ns#"
   xmlns:svg="http://www.w3.org/2000/svg"
   xmlns="http://www.w3.org/2000/svg"
   xmlns:sodipodi="http://sodipodi.sourceforge.net/DTD/sodipodi-0.dtd"
   xmlns:inkscape="http://www.inkscape.org/namespaces/inkscape"
   id="Layer_1"
   viewBox="0 0 48 48"
   version="1.1"
   inkscape:version="0.48.4 r9939"
   width="100%"
   height="100%"
   sodipodi:docname="search.svg">
  <defs
     id="defs11" />
  <sodipodi:namedview
     pagecolor="#ffffff"
     bordercolor="#666666"
     borderopacity="1"
     objecttolerance="10"
     gridtolerance="10"
     guidetolerance="10"
     inkscape:pageopacity="0"
     inkscape:pageshadow="2"
     inkscape:window-width="889"
     inkscape:window-height="585"
     id="namedview9"
     showgrid="false"
     inkscape:zoom="5.1081183"
     inkscape:cx="20.242268"
     inkscape:cy="28.777721"
     inkscape:window-x="711"
     inkscape:window-y="165"
     inkscape:window-maximized="0"
     inkscape:current-layer="Layer_1" />
  <g
     transform="matrix(-0.96635826,0,0,0.96635826,74.963467,-24.16183)"
     id="g3">
    <path
       d="M 69.902,72.704 58.967,61.769 c -2.997,1.961 -6.579,3.111 -10.444,3.111 -10.539,0 -19.062,-8.542 -19.062,-19.081 0,-10.519 8.522,-19.061 19.062,-19.061 10.521,0 19.06,8.542 19.06,19.061 0,3.679 -1.036,7.107 -2.828,10.011 l 11.013,11.011 c 0.583,0.567 0.094,1.981 -1.076,3.148 l -1.64,1.644 c -1.17,1.167 -2.584,1.656 -3.15,1.091 z M 61.249,45.799 c 0,-7.033 -5.695,-12.727 -12.727,-12.727 -7.033,0 -12.745,5.694 -12.745,12.727 0,7.033 5.712,12.745 12.745,12.745 7.032,0 12.727,-5.711 12.727,-12.745 z"
       id="path5"
       inkscape:connector-curvature="0" />
  </g>
  <metadata
     id="metadata7">
    <rdf:RDF>
      <cc:Work>
        <dc:format>image/svg+xml</dc:format>
        <dc:type
           rdf:resource="http://purl.org/dc/dcmitype/StillImage" />
        <cc:license
           rdf:resource="http://creativecommons.org/licenses/publicdomain/" />
        <dc:publisher>
          <cc:Agent
             rdf:about="http://openclipart.org/">
            <dc:title>Openclipart</dc:title>
          </cc:Agent>
        </dc:publisher>
      </cc:Work>
      <cc:License
         rdf:about="http://creativecommons.org/licenses/publicdomain/">
        <cc:permits
           rdf:resource="http://creativecommons.org/ns#Reproduction" />
        <cc:permits
           rdf:resource="http://creativecommons.org/ns#Distribution" />
        <cc:permits
           rdf:resource="http://creativecommons.org/ns#DerivativeWorks" />
      </cc:License>
    </rdf:RDF>
  </metadata>
</svg>
