<?xml version="1.0" encoding="UTF-8" standalone="no"?>
<!-- Generator: Adobe Illustrator 19.0.0, SVG Export Plug-In . SVG Version: 6.00 Build 0)  -->

<svg
   xmlns:dc="http://purl.org/dc/elements/1.1/"
   xmlns:cc="http://creativecommons.org/ns#"
   xmlns:rdf="http://www.w3.org/1999/02/22-rdf-syntax-ns#"
   xmlns:svg="http://www.w3.org/2000/svg"
   xmlns="http://www.w3.org/2000/svg"
   xmlns:xlink="http://www.w3.org/1999/xlink"
   xmlns:sodipodi="http://sodipodi.sourceforge.net/DTD/sodipodi-0.dtd"
   xmlns:inkscape="http://www.inkscape.org/namespaces/inkscape"
   version="1.1"
   id="Layer_1"
   x="0px"
   y="0px"
   viewBox="0 0 48 48"
   xml:space="preserve"
   inkscape:version="0.48.4 r9939"
   width="100%"
   height="100%"
   sodipodi:docname="site_point.svg"><metadata
     id="metadata43"><rdf:RDF><cc:Work
         rdf:about=""><dc:format>image/svg+xml</dc:format><dc:type
           rdf:resource="http://purl.org/dc/dcmitype/StillImage" /></cc:Work></rdf:RDF></metadata><defs
     id="defs41" /><sodipodi:namedview
     pagecolor="#ffffff"
     bordercolor="#666666"
     borderopacity="1"
     objecttolerance="10"
     gridtolerance="10"
     guidetolerance="10"
     inkscape:pageopacity="0"
     inkscape:pageshadow="2"
     inkscape:window-width="1506"
     inkscape:window-height="775"
     id="namedview39"
     showgrid="false"
     inkscape:zoom="4"
     inkscape:cx="-11.125514"
     inkscape:cy="47.416336"
     inkscape:window-x="0"
     inkscape:window-y="25"
     inkscape:window-maximized="0"
     inkscape:current-layer="Layer_1" /><g
     id="g3"
     transform="matrix(0.1899478,0,0,0.1899478,-9.44778e-5,4.961e-7)"><g
       id="g5"><path
         d="m 127.152,0.044 0,-0.044 c -0.271,0 -0.533,0.018 -0.8,0.018 C 126.085,0.018 125.821,0 125.55,0 l 0,0.044 C 71.256,0.906 27.506,45.157 27.506,99.651 c 0,73.437 86.222,143.148 98.846,153.05 12.624,-9.902 98.844,-79.611 98.844,-153.05 C 225.193,45.157 181.449,0.906 127.152,0.044 z"
         id="path7"
         inkscape:connector-curvature="0"
         sodipodi:nodetypes="ccsccsccc" /></g></g><g
     id="g9"
     transform="translate(0,-204.701)" /><g
     id="g11"
     transform="translate(0,-204.701)" /><g
     id="g13"
     transform="translate(0,-204.701)" /><g
     id="g15"
     transform="translate(0,-204.701)" /><g
     id="g17"
     transform="translate(0,-204.701)" /><g
     id="g19"
     transform="translate(0,-204.701)" /><g
     id="g21"
     transform="translate(0,-204.701)" /><g
     id="g23"
     transform="translate(0,-204.701)" /><g
     id="g25"
     transform="translate(0,-204.701)" /><g
     id="g27"
     transform="translate(0,-204.701)" /><g
     id="g29"
     transform="translate(0,-204.701)" /><g
     id="g31"
     transform="translate(0,-204.701)" /><g
     id="g33"
     transform="translate(0,-204.701)" /><g
     id="g35"
     transform="translate(0,-204.701)" /><g
     id="g37"
     transform="translate(0,-204.701)" /><path
     style="font-size:medium;font-style:normal;font-variant:normal;font-weight:normal;font-stretch:normal;text-indent:0;text-align:start;text-decoration:none;line-height:normal;letter-spacing:normal;word-spacing:normal;text-transform:none;direction:ltr;block-progression:tb;writing-mode:lr-tb;text-anchor:start;baseline-shift:baseline;color:#000000;fill:#ffffff;fill-opacity:1;stroke:none;stroke-width:0.53811437;marker:none;visibility:visible;display:inline;overflow:visible;enable-background:accumulate;font-family:Sans;-inkscape-font-specification:Sans"
     d="m 23.99489,13.927583 c -1.556439,0 -2.816549,1.26151 -2.816549,2.816549 0,1.555038 1.26011,2.816548 2.816549,2.816548 1.556438,0 2.831066,-1.26151 2.831066,-2.816548 0,-1.555039 -1.274628,-2.816549 -2.831066,-2.816549 z"
     id="ellipse9"
     inkscape:connector-curvature="0"
     sodipodi:nodetypes="sssss" /><path
     style="font-size:medium;font-style:normal;font-variant:normal;font-weight:normal;font-stretch:normal;text-indent:0;text-align:start;text-decoration:none;line-height:normal;letter-spacing:normal;word-spacing:normal;text-transform:none;direction:ltr;block-progression:tb;writing-mode:lr-tb;text-anchor:start;baseline-shift:baseline;color:#000000;fill:#ffffff;fill-opacity:1;stroke:none;stroke-width:0.25;marker:none;visibility:visible;display:inline;overflow:visible;enable-background:accumulate;font-family:Sans;-inkscape-font-specification:Sans"
     d="m 20.90625,20.8125 c -1.17881,0.447619 -2,1.570212 -2,2.90625 l 0,4.03125 c 0,0.862616 0.360667,1.413531 0.9375,1.71875 0.576833,0.305219 1.35084,0.40625 2.1875,0.40625 l 3.9375,0 c 0.837096,0 1.610311,-0.101162 2.1875,-0.40625 0.577189,-0.305088 0.9375,-0.855665 0.9375,-1.71875 l 0,-4.03125 c 0,-1.336038 -0.820269,-2.458649 -2,-2.90625 -0.01036,-0.0013 -0.02089,-0.0013 -0.03125,0 -0.01036,-0.0013 -0.02089,-0.0013 -0.03125,0 -0.01036,-0.0013 -0.02089,-0.0013 -0.03125,0 -0.01216,0.0085 -0.02279,0.01909 -0.03125,0.03125 -0.838493,0.599832 -1.860613,0.9375 -2.96875,0.9375 -1.109088,0 -2.130256,-0.337668 -2.96875,-0.9375 -0.0085,-0.01216 -0.01909,-0.02279 -0.03125,-0.03125 -0.01036,-0.0013 -0.02089,-0.0013 -0.03125,0 -0.01036,-0.0013 -0.02089,-0.0013 -0.03125,0 -0.01036,-0.0013 -0.02089,-0.0013 -0.03125,0 z"
     id="path11"
     inkscape:connector-curvature="0"
     sodipodi:nodetypes="csssssssscccccsccccc" /><path
     style="font-size:medium;font-style:normal;font-variant:normal;font-weight:normal;font-stretch:normal;text-indent:0;text-align:start;text-decoration:none;line-height:normal;letter-spacing:normal;word-spacing:normal;text-transform:none;direction:ltr;block-progression:tb;writing-mode:lr-tb;text-anchor:start;baseline-shift:baseline;color:#000000;fill:#ffffff;fill-opacity:1;stroke:none;stroke-width:0.25;marker:none;visibility:visible;display:inline;overflow:visible;enable-background:accumulate;font-family:Sans;-inkscape-font-specification:Sans"
     d="m 17.4375,14.4375 c -1.259107,0 -2.28125,1.02211 -2.28125,2.28125 0,1.256981 1.022515,2.28125 2.28125,2.28125 1.258735,0 2.28125,-1.024269 2.28125,-2.28125 0,-1.259172 -1.02258,-2.28125 -2.28125,-2.28125 z"
     id="path17"
     inkscape:connector-curvature="0"
     sodipodi:nodetypes="sssss" /><path
     style="font-size:medium;font-style:normal;font-variant:normal;font-weight:normal;font-stretch:normal;text-indent:0;text-align:start;text-decoration:none;line-height:normal;letter-spacing:normal;word-spacing:normal;text-transform:none;direction:ltr;block-progression:tb;writing-mode:lr-tb;text-anchor:start;baseline-shift:baseline;color:#000000;fill:#ffffff;fill-opacity:1;stroke:none;stroke-width:0.25;marker:none;visibility:visible;display:inline;overflow:visible;enable-background:accumulate;font-family:Sans;-inkscape-font-specification:Sans"
     d="m 30.5625,14.4375 c -1.259107,0 -2.28125,1.02211 -2.28125,2.28125 0,1.256949 1.022078,2.28125 2.28125,2.28125 1.259173,0 2.28125,-1.024269 2.28125,-2.28125 0,-1.259172 -1.022142,-2.28125 -2.28125,-2.28125 z"
     id="path23"
     inkscape:connector-curvature="0"
     sodipodi:nodetypes="sssss" /><path
     style="font-size:medium;font-style:normal;font-variant:normal;font-weight:normal;font-stretch:normal;text-indent:0;text-align:start;text-decoration:none;line-height:normal;letter-spacing:normal;word-spacing:normal;text-transform:none;direction:ltr;block-progression:tb;writing-mode:lr-tb;text-anchor:start;baseline-shift:baseline;color:#000000;fill:#ffffff;fill-opacity:1;stroke:none;stroke-width:0.25;marker:none;visibility:visible;display:inline;overflow:visible;enable-background:accumulate;font-family:Sans;-inkscape-font-specification:Sans"
     d="m 28.685422,20.504064 c 0.350203,0.188467 0.588095,0.284002 0.987527,0.370104 0.730933,0.577952 0.654429,1.909829 0.654429,1.909829 l 0.01172,4.434753 1.81715,0 c 0.671496,0 1.281591,-0.06472 1.75,-0.3125 0.468409,-0.247779 0.78125,-0.678004 0.78125,-1.375 l 0,-3.21875 c 0,-1.078265 -0.67242,-2.013323 -1.625,-2.375 -0.01036,-0.0013 -0.02089,-0.0013 -0.03125,0 -0.01036,-0.0013 -0.02089,-0.0013 -0.03125,0 -0.01036,-0.0013 -0.02089,-0.0013 -0.03125,0 -0.01216,0.0085 -0.02279,0.01909 -0.03125,0.03125 -0.667026,0.478057 -1.492549,0.75 -2.375,0.75 -0.70616,0 -1.217948,-0.128783 -1.791881,-0.444027 -0.169252,0.01339 -0.154416,0.190951 -0.0852,0.229341 z"
     id="path25"
     inkscape:connector-curvature="0"
     sodipodi:nodetypes="ccccsssscccccscc" /><path
     style="font-size:medium;font-style:normal;font-variant:normal;font-weight:normal;font-stretch:normal;text-indent:0;text-align:start;text-decoration:none;line-height:normal;letter-spacing:normal;word-spacing:normal;text-transform:none;direction:ltr;block-progression:tb;writing-mode:lr-tb;text-anchor:start;baseline-shift:baseline;color:#000000;fill:#ffffff;fill-opacity:1;stroke:none;stroke-width:0.53811437;marker:none;visibility:visible;display:inline;overflow:visible;enable-background:accumulate;font-family:Sans;-inkscape-font-specification:Sans"
     d="m 11.843081,14.624461 c -1.020249,0 -1.8438227,0.823574 -1.8438227,1.843823 0,1.020249 0.8235737,1.858341 1.8438227,1.858341 1.020249,0 1.858341,-0.838092 1.858341,-1.858341 0,-1.020249 -0.838092,-1.843823 -1.858341,-1.843823 z"
     id="circle31"
     inkscape:connector-curvature="0"
     sodipodi:nodetypes="sssss" /><path
     style="font-size:medium;font-style:normal;font-variant:normal;font-weight:normal;font-stretch:normal;text-indent:0;text-align:start;text-decoration:none;line-height:normal;letter-spacing:normal;word-spacing:normal;text-transform:none;direction:ltr;block-progression:tb;writing-mode:lr-tb;text-anchor:start;baseline-shift:baseline;color:#000000;fill:#ffffff;fill-opacity:1;stroke:none;stroke-width:0.53811437;marker:none;visibility:visible;display:inline;overflow:visible;enable-background:accumulate;font-family:Sans;-inkscape-font-specification:Sans"
     d="m 36.146698,14.624461 c -1.020249,0 -1.843823,0.823574 -1.843823,1.843823 0,1.020249 0.823574,1.858341 1.843823,1.858341 1.020249,0 1.858341,-0.838092 1.858341,-1.858341 0,-1.020249 -0.838092,-1.843823 -1.858341,-1.843823 z"
     id="circle37"
     inkscape:connector-curvature="0"
     sodipodi:nodetypes="sssss" /><path
     style="font-size:medium;font-style:normal;font-variant:normal;font-weight:normal;font-stretch:normal;text-indent:0;text-align:start;text-decoration:none;line-height:normal;letter-spacing:normal;word-spacing:normal;text-transform:none;direction:ltr;block-progression:tb;writing-mode:lr-tb;text-anchor:start;baseline-shift:baseline;color:#000000;fill:#ffffff;fill-opacity:1;stroke:none;stroke-width:0.25;marker:none;visibility:visible;display:inline;overflow:visible;enable-background:accumulate;font-family:Sans;-inkscape-font-specification:Sans"
     d="m 34.809781,19.618843 c 0.206121,0.09214 0.35132,0.148734 0.576091,0.200172 0.248716,0.05692 0.488297,0.355941 0.610174,0.595468 0.143779,0.28257 0.173214,0.641282 0.173214,0.641282 l 0.02606,3.850485 1.21094,0 c 0.538867,0 1.05614,-0.04815 1.4375,-0.25 0.38136,-0.201855 0.625,-0.560658 0.625,-1.125 l 0,-2.59375 c 0,-0.872882 -0.540686,-1.612862 -1.3125,-1.90625 -0.01036,-0.0013 -0.02089,-0.0013 -0.03125,0 -0.01036,-0.0013 -0.02089,-0.0013 -0.03125,0 -0.01036,-0.0013 -0.02089,-0.0013 -0.03125,0 -0.01216,0.0085 -0.02279,0.01909 -0.03125,0.03125 -0.529633,0.379205 -1.174814,0.59375 -1.875,0.59375 -0.47244,0 -0.849786,-0.08128 -1.254134,-0.26176 -0.155785,-0.05438 -0.235343,0.157067 -0.09235,0.224353 z"
     id="path39"
     inkscape:connector-curvature="0"
     sodipodi:nodetypes="cssccsssscccccscc" /><use
     x="0"
     y="0"
     xlink:href="#path25"
     id="use3919"
     transform="matrix(-1,0,0,1,48.005918,0)"
     width="48"
     height="48" /><use
     x="0"
     y="0"
     xlink:href="#path39"
     id="use3921"
     transform="matrix(-1,0,0,1,48.005918,0)"
     width="48"
     height="48" /></svg>