<?xml version="1.0" encoding="utf-8"?>
<!-- Generator: Adobe Illustrator 16.0.0, SVG Export Plug-In . SVG Version: 6.00 Build 0)  -->
<!DOCTYPE svg PUBLIC "-//W3C//DTD SVG 1.1//EN" "http://www.w3.org/Graphics/SVG/1.1/DTD/svg11.dtd">
<svg version="1.1" id="Vrstva_1" xmlns="http://www.w3.org/2000/svg" xmlns:xlink="http://www.w3.org/1999/xlink" x="0px" y="0px"
	 width="91.333px" height="85.167px" viewBox="0 0 91.333 85.167" enable-background="new 0 0 91.333 85.167" xml:space="preserve">

<style>
	/* <![CDATA[ */
	path, circle {
		stroke: gray;
		stroke-width: 3;
	}
	/* ]]> */
</style>

<g>
	<g>
		
			<circle fill="none" stroke-width="1.5" stroke-linecap="round" stroke-linejoin="round" stroke-miterlimit="10" cx="53.283" cy="20.375" r="7.495"/>
		<g>
			
				<path fill="none" stroke-width="1.5" stroke-linecap="round" stroke-linejoin="round" stroke-miterlimit="10" d="
				M49.538,41.688l-4.469-9.769c-3.279,1.126-5.637,4.235-5.637,7.898v11.19c0,4.609,3.738,5.501,8.348,5.501h11.002
				c4.613,0,8.352-0.892,8.352-5.501v-11.19c0-3.663-2.357-6.772-5.637-7.898l-4.469,9.769"/>
			
				<path fill="none" stroke-width="1.5" stroke-linecap="round" stroke-linejoin="round" stroke-miterlimit="10" d="
				M53.831,48.669l3.197-6.98l-2.25-4.916c0.697-0.48,1.162-1.285,1.162-2.194c0-1.469-1.191-2.658-2.656-2.658
				c-1.471,0-2.658,1.189-2.658,2.658c0,0.909,0.457,1.714,1.164,2.194l-2.252,4.916l3.193,6.98
				C53.036,49.336,53.53,49.336,53.831,48.669z"/>
		</g>
	</g>
	<path fill="none" stroke-width="1.5" stroke-linecap="round" stroke-linejoin="round" stroke-miterlimit="10" d="
		M37.979,19.876h-4.715v-4.715c0-1.184-0.959-2.143-2.143-2.143c-1.182,0-2.143,0.959-2.143,2.143v4.715h-4.715
		c-1.184,0-2.143,0.96-2.143,2.143c0,1.184,0.959,2.143,2.143,2.143h4.715v4.715c0,1.184,0.961,2.143,2.143,2.143
		c1.184,0,2.143-0.959,2.143-2.143v-4.715h4.715c1.184,0,2.143-0.959,2.143-2.143C40.122,20.836,39.163,19.876,37.979,19.876z"/>
</g>
</svg>
