<?xml version="1.0" encoding="UTF-8" standalone="no"?>
<!-- Created with Inkscape (http://www.inkscape.org/) -->

<svg
   xmlns:dc="http://purl.org/dc/elements/1.1/"
   xmlns:cc="http://creativecommons.org/ns#"
   xmlns:rdf="http://www.w3.org/1999/02/22-rdf-syntax-ns#"
   xmlns:svg="http://www.w3.org/2000/svg"
   xmlns="http://www.w3.org/2000/svg"
   xmlns:sodipodi="http://sodipodi.sourceforge.net/DTD/sodipodi-0.dtd"
   xmlns:inkscape="http://www.inkscape.org/namespaces/inkscape"
   width="48"
   height="48"
   id="svg2"
   version="1.1"
   inkscape:version="0.48.4 r9939"
   sodipodi:docname="socioeconomic.svg">
  <defs
     id="defs4" />
  <sodipodi:namedview
     id="base"
     pagecolor="#ffffff"
     bordercolor="#666666"
     borderopacity="1.0"
     inkscape:pageopacity="0.0"
     inkscape:pageshadow="2"
     inkscape:zoom="5.6"
     inkscape:cx="-1.5623986"
     inkscape:cy="9.7073988"
     inkscape:document-units="px"
     inkscape:current-layer="layer1"
     showgrid="false"
     inkscape:window-width="1223"
     inkscape:window-height="830"
     inkscape:window-x="26"
     inkscape:window-y="51"
     inkscape:window-maximized="0" />
  <metadata
     id="metadata7">
    <rdf:RDF>
      <cc:Work
         rdf:about="">
        <dc:format>image/svg+xml</dc:format>
        <dc:type
           rdf:resource="http://purl.org/dc/dcmitype/StillImage" />
      </cc:Work>
    </rdf:RDF>
  </metadata>
  <g
     inkscape:label="Layer 1"
     inkscape:groupmode="layer"
     id="layer1"
     transform="translate(0,-1004.3622)">
    <path
       style="fill:#000000"
       d="m 14.191144,1045.9412 c 0.03227,-4.2662 0.08726,-6.5934 0.165938,-7.0253 0.143406,-0.787 0.563037,-1.7551 1.029324,-2.3747 0.266417,-0.3539 0.862281,-0.9439 1.255621,-1.2429 1.176255,-0.8945 3.4546,-2.2247 6.79164,-3.9653 1.125057,-0.5868 1.247609,-0.6413 1.295975,-0.5751 0.07369,0.1011 0.440628,1.2139 1.356424,4.1145 1.055274,3.3425 1.71866,5.3913 1.759368,5.4337 0.01854,0.019 0.06494,-0.044 0.103096,-0.1384 0.167828,-0.4194 0.849754,-2.3275 1.256549,-3.5156 l 0.443702,-1.2962 -0.100591,-0.188 c -0.05533,-0.1032 -0.20994,-0.372 -0.343591,-0.5966 -0.548649,-0.9226 -0.758813,-1.4971 -0.786886,-2.1509 -0.01688,-0.3928 -0.0068,-0.4847 0.07709,-0.7071 0.168478,-0.4461 0.549729,-0.7497 1.138069,-0.9064 0.365121,-0.097 1.135208,-0.1301 1.519321,-0.066 0.597144,0.1011 1.208472,0.5172 1.429347,0.9736 0.286966,0.5927 -0.07776,1.8421 -0.910667,3.1194 -0.293957,0.4508 -0.307776,0.4831 -0.262425,0.6118 0.02634,0.074 0.337264,0.9586 0.690963,1.9641 0.353701,1.0055 0.735615,2.0789 0.8487,2.3853 l 0.205605,0.5571 0.07885,-0.1857 c 0.09875,-0.2324 0.9376,-2.8005 2.031599,-6.2195 1.151644,-3.5991 1.01343,-3.214 1.142507,-3.184 0.392568,0.091 4.123886,2.1106 6.371,3.4484 1.421265,0.8462 2.133204,1.4115 2.763618,2.1947 0.826701,1.1262 1.074694,2.0486 1.168955,3.3095 0.09603,3.8688 0.22879,6.6884 -0.105139,9.5807 -2.60995,0 -10.317875,0.045 -18.167643,0.057 l -14.272313,0.02 0.02598,-3.4333 z m 15.291191,-17.6125 c -3.127691,-0.3593 -5.302657,-2.517 -6.173511,-6.1245 -0.361816,-1.4989 -0.470159,-2.5196 -0.470307,-4.4306 0,-1.6423 0.06138,-2.3351 0.302915,-3.4121 0.612468,-2.7307 2.164855,-4.5325 4.63693,-5.3819 0.97511,-0.3351 1.202735,-0.3658 2.714849,-0.3666 1.11396,-8e-4 1.396364,0.013 1.715334,0.077 3.124049,0.6312 5.159834,2.7147 5.772168,5.9073 0.168929,0.8807 0.304331,3.0007 0.256487,4.0157 -0.120889,2.565 -0.500591,4.221 -1.366057,5.9579 -0.405569,0.8138 -0.67026,1.1786 -1.343166,1.8511 -0.67146,0.671 -0.989035,0.9018 -1.719017,1.2487 -0.823704,0.3917 -1.476494,0.573 -2.384702,0.6629 -0.517794,0.05 -1.477797,0.049 -1.941923,-0.013 z"
       id="path2996"
       inkscape:connector-curvature="0"
       sodipodi:nodetypes="ccccscscccccccccccscsccccccccccccccccccccsscccccc" />
    <text
       xml:space="preserve"
       style="font-size:30.90200996px;font-style:normal;font-variant:normal;font-weight:normal;font-stretch:normal;line-height:125%;letter-spacing:0px;word-spacing:0px;fill:#000000;fill-opacity:1;stroke:none;font-family:Ubuntu;-inkscape-font-specification:Ubuntu"
       x="-0.58923519"
       y="1032.7729"
       id="text2998"
       sodipodi:linespacing="125%"><tspan
         sodipodi:role="line"
         id="tspan3000"
         x="-0.58923519"
         y="1032.7729">+</tspan></text>
  </g>
</svg>
