<?xml version="1.0" encoding="UTF-8" standalone="no"?>
<!-- Generator: Adobe Illustrator 19.0.0, SVG Export Plug-In . SVG Version: 6.00 Build 0)  -->

<svg
   xmlns:dc="http://purl.org/dc/elements/1.1/"
   xmlns:cc="http://creativecommons.org/ns#"
   xmlns:rdf="http://www.w3.org/1999/02/22-rdf-syntax-ns#"
   xmlns:svg="http://www.w3.org/2000/svg"
   xmlns="http://www.w3.org/2000/svg"
   xmlns:sodipodi="http://sodipodi.sourceforge.net/DTD/sodipodi-0.dtd"
   xmlns:inkscape="http://www.inkscape.org/namespaces/inkscape"
   version="1.1"
   id="Layer_1"
   x="0px"
   y="0px"
   viewBox="0 0 48 48"
   xml:space="preserve"
   inkscape:version="0.48.4 r9939"
   width="100%"
   height="100%"
   sodipodi:docname="point (copy).svg"><metadata
     id="metadata43"><rdf:RDF><cc:Work
         rdf:about=""><dc:format>image/svg+xml</dc:format><dc:type
           rdf:resource="http://purl.org/dc/dcmitype/StillImage" /></cc:Work></rdf:RDF></metadata><defs
     id="defs41" /><sodipodi:namedview
     pagecolor="#ffffff"
     bordercolor="#666666"
     borderopacity="1"
     objecttolerance="10"
     gridtolerance="10"
     guidetolerance="10"
     inkscape:pageopacity="0"
     inkscape:pageshadow="2"
     inkscape:window-width="1612"
     inkscape:window-height="896"
     id="namedview39"
     showgrid="false"
     inkscape:zoom="1"
     inkscape:cx="-51.670606"
     inkscape:cy="1.7292859"
     inkscape:window-x="0"
     inkscape:window-y="25"
     inkscape:window-maximized="0"
     inkscape:current-layer="Layer_1" /><g
     id="g9"
     transform="translate(0,-204.701)" /><g
     id="g11"
     transform="translate(0,-204.701)" /><g
     id="g13"
     transform="translate(0,-204.701)" /><g
     id="g15"
     transform="translate(0,-204.701)" /><g
     id="g17"
     transform="translate(0,-204.701)" /><g
     id="g19"
     transform="translate(0,-204.701)" /><g
     id="g21"
     transform="translate(0,-204.701)" /><g
     id="g23"
     transform="translate(0,-204.701)" /><g
     id="g25"
     transform="translate(0,-204.701)" /><g
     id="g27"
     transform="translate(0,-204.701)" /><g
     id="g29"
     transform="translate(0,-204.701)" /><g
     id="g31"
     transform="translate(0,-204.701)" /><g
     id="g33"
     transform="translate(0,-204.701)" /><g
     id="g35"
     transform="translate(0,-204.701)" /><g
     id="g37"
     transform="translate(0,-204.701)" /><path
     transform="matrix(1.1484767,0,0,1.1484767,12.959395,28.363319)"
     d="m 21.957251,5.6944346 a 2.1767964,2.1767964 0 1 1 -4.353593,0 2.1767964,2.1767964 0 1 1 4.353593,0 z"
     sodipodi:ry="2.1767964"
     sodipodi:rx="2.1767964"
     sodipodi:cy="5.6944346"
     sodipodi:cx="19.780455"
     id="path3793"
     style="fill:#808080;fill-opacity:1;stroke:none"
     sodipodi:type="arc" /><path
     sodipodi:type="arc"
     style="fill:#000000;fill-opacity:1;stroke:none"
     id="path3001"
     sodipodi:cx="19.780455"
     sodipodi:cy="5.6944346"
     sodipodi:rx="2.1767964"
     sodipodi:ry="2.1767964"
     d="m 21.957251,5.6944346 a 2.1767964,2.1767964 0 1 1 -4.353593,0 2.1767964,2.1767964 0 1 1 4.353593,0 z"
     transform="matrix(1.8375627,0,0,1.8375627,-12.347826,-2.4638806)" /><path
     transform="matrix(0.91878136,0,0,0.91878136,21.826086,18.76806)"
     d="m 21.957251,5.6944346 a 2.1767964,2.1767964 0 1 1 -4.353593,0 2.1767964,2.1767964 0 1 1 4.353593,0 z"
     sodipodi:ry="2.1767964"
     sodipodi:rx="2.1767964"
     sodipodi:cy="5.6944346"
     sodipodi:cx="19.780455"
     id="path3013"
     style="fill:#999999;fill-opacity:1;stroke:none"
     sodipodi:type="arc" /><path
     sodipodi:type="arc"
     style="fill:#666666;fill-opacity:1;stroke:none"
     id="path3009"
     sodipodi:cx="19.780455"
     sodipodi:cy="5.6944346"
     sodipodi:rx="2.1767964"
     sodipodi:ry="2.1767964"
     d="m 21.957251,5.6944346 a 2.1767964,2.1767964 0 1 1 -4.353593,0 2.1767964,2.1767964 0 1 1 4.353593,0 z"
     transform="matrix(1.378172,0,0,1.378172,-3.2608687,32.15209)" /><path
     transform="matrix(1.6078674,0,0,1.6078674,-23.804348,14.844105)"
     d="m 21.957251,5.6944346 a 2.1767964,2.1767964 0 1 1 -4.353593,0 2.1767964,2.1767964 0 1 1 4.353593,0 z"
     sodipodi:ry="2.1767964"
     sodipodi:rx="2.1767964"
     sodipodi:cy="5.6944346"
     sodipodi:cx="19.780455"
     id="path3011"
     style="fill:#333333;fill-opacity:1;stroke:none"
     sodipodi:type="arc" /><path
     transform="matrix(1.6078674,0,0,1.6078674,-19.69256,4.1345133)"
     d="m 21.957251,5.6944346 a 2.1767964,2.1767964 0 1 1 -4.353593,0 2.1767964,2.1767964 0 1 1 4.353593,0 z"
     sodipodi:ry="2.1767964"
     sodipodi:rx="2.1767964"
     sodipodi:cy="5.6944346"
     sodipodi:cx="19.780455"
     id="path3787"
     style="fill:#1a1a1a;fill-opacity:1;stroke:none"
     sodipodi:type="arc" /><path
     sodipodi:type="arc"
     style="fill:#4d4d4d;fill-opacity:1;stroke:none"
     id="path3789"
     sodipodi:cx="19.780455"
     sodipodi:cy="5.6944346"
     sodipodi:rx="2.1767964"
     sodipodi:ry="2.1767964"
     d="m 21.957251,5.6944346 a 2.1767964,2.1767964 0 1 1 -4.353593,0 2.1767964,2.1767964 0 1 1 4.353593,0 z"
     transform="matrix(1.378172,0,0,1.378172,-14.947405,27.055334)" /><path
     sodipodi:type="arc"
     style="fill:#b3b3b3;fill-opacity:1;stroke:none"
     id="path3795"
     sodipodi:cx="19.780455"
     sodipodi:cy="5.6944346"
     sodipodi:rx="2.1767964"
     sodipodi:ry="2.1767964"
     d="m 21.957251,5.6944346 a 2.1767964,2.1767964 0 1 1 -4.353593,0 2.1767964,2.1767964 0 1 1 4.353593,0 z"
     transform="matrix(0.57423835,0,0,0.57423835,25.076464,10.700664)" /><path
     transform="matrix(0.8725583,0,0,0.8725583,49.202314,-5.6200231)"
     d="m 45.775288,33.946182 a 18.336884,18.336884 0 1 1 -36.6737675,0 18.336884,18.336884 0 1 1 36.6737675,0 z"
     sodipodi:ry="18.336884"
     sodipodi:rx="18.336884"
     sodipodi:cy="33.946182"
     sodipodi:cx="27.438404"
     id="path3797"
     style="fill:#ffeeaa;fill-opacity:1;stroke:none"
     sodipodi:type="arc" /><path
     sodipodi:type="arc"
     style="fill:#808080;fill-opacity:1;stroke:none"
     id="path3799"
     sodipodi:cx="19.780455"
     sodipodi:cy="5.6944346"
     sodipodi:rx="2.1767964"
     sodipodi:ry="2.1767964"
     d="m 21.957251,5.6944346 a 2.1767964,2.1767964 0 1 1 -4.353593,0 2.1767964,2.1767964 0 1 1 4.353593,0 z"
     transform="matrix(1.1484767,0,0,1.1484767,62.103316,28.363319)" /><path
     transform="matrix(1.8375627,0,0,1.8375627,36.796095,-2.4638806)"
     d="m 21.957251,5.6944346 a 2.1767964,2.1767964 0 1 1 -4.353593,0 2.1767964,2.1767964 0 1 1 4.353593,0 z"
     sodipodi:ry="2.1767964"
     sodipodi:rx="2.1767964"
     sodipodi:cy="5.6944346"
     sodipodi:cx="19.780455"
     id="path3801"
     style="fill:#000000;fill-opacity:1;stroke:none"
     sodipodi:type="arc" /><path
     sodipodi:type="arc"
     style="fill:#999999;fill-opacity:1;stroke:none"
     id="path3803"
     sodipodi:cx="19.780455"
     sodipodi:cy="5.6944346"
     sodipodi:rx="2.1767964"
     sodipodi:ry="2.1767964"
     d="m 21.957251,5.6944346 a 2.1767964,2.1767964 0 1 1 -4.353593,0 2.1767964,2.1767964 0 1 1 4.353593,0 z"
     transform="matrix(0.91878136,0,0,0.91878136,70.970007,18.76806)" /><path
     sodipodi:type="arc"
     style="fill:#cc0000;fill-opacity:1;stroke:none"
     id="path3805"
     sodipodi:cx="19.780455"
     sodipodi:cy="5.6944346"
     sodipodi:rx="2.1767964"
     sodipodi:ry="2.1767964"
     d="m 21.957251,5.6944346 a 2.1767964,2.1767964 0 1 1 -4.353593,0 2.1767964,2.1767964 0 1 1 4.353593,0 z"
     transform="matrix(0.45939068,0,0,0.45939068,80.056964,21.38403)" /><path
     transform="matrix(1.378172,0,0,1.378172,45.883052,32.15209)"
     d="m 21.957251,5.6944346 a 2.1767964,2.1767964 0 1 1 -4.353593,0 2.1767964,2.1767964 0 1 1 4.353593,0 z"
     sodipodi:ry="2.1767964"
     sodipodi:rx="2.1767964"
     sodipodi:cy="5.6944346"
     sodipodi:cx="19.780455"
     id="path3807"
     style="fill:#666666;fill-opacity:1;stroke:none"
     sodipodi:type="arc" /><path
     sodipodi:type="arc"
     style="fill:#cc0000;fill-opacity:1;stroke:none"
     id="path3809"
     sodipodi:cx="19.780455"
     sodipodi:cy="5.6944346"
     sodipodi:rx="2.1767964"
     sodipodi:ry="2.1767964"
     d="m 21.957251,5.6944346 a 2.1767964,2.1767964 0 1 1 -4.353593,0 2.1767964,2.1767964 0 1 1 4.353593,0 z"
     transform="matrix(0.91878136,0,0,0.91878136,54.970008,34.76806)" /><path
     sodipodi:type="arc"
     style="fill:#333333;fill-opacity:1;stroke:none"
     id="path3811"
     sodipodi:cx="19.780455"
     sodipodi:cy="5.6944346"
     sodipodi:rx="2.1767964"
     sodipodi:ry="2.1767964"
     d="m 21.957251,5.6944346 a 2.1767964,2.1767964 0 1 1 -4.353593,0 2.1767964,2.1767964 0 1 1 4.353593,0 z"
     transform="matrix(1.6078674,0,0,1.6078674,25.339573,14.844105)" /><path
     transform="matrix(0.4138084,0,0,0.4138084,48.958603,21.643596)"
     d="m 21.957251,5.6944346 a 2.1767964,2.1767964 0 1 1 -4.353593,0 2.1767964,2.1767964 0 1 1 4.353593,0 z"
     sodipodi:ry="2.1767964"
     sodipodi:rx="2.1767964"
     sodipodi:cy="5.6944346"
     sodipodi:cx="19.780455"
     id="path3813"
     style="fill:#cc0000;fill-opacity:1;stroke:none"
     sodipodi:type="arc" /><path
     sodipodi:type="arc"
     style="fill:#1a1a1a;fill-opacity:1;stroke:none"
     id="path3815"
     sodipodi:cx="19.780455"
     sodipodi:cy="5.6944346"
     sodipodi:rx="2.1767964"
     sodipodi:ry="2.1767964"
     d="m 21.957251,5.6944346 a 2.1767964,2.1767964 0 1 1 -4.353593,0 2.1767964,2.1767964 0 1 1 4.353593,0 z"
     transform="matrix(1.6078674,0,0,1.6078674,29.451361,4.1345133)" /><path
     transform="matrix(1.378172,0,0,1.378172,34.196516,27.055334)"
     d="m 21.957251,5.6944346 a 2.1767964,2.1767964 0 1 1 -4.353593,0 2.1767964,2.1767964 0 1 1 4.353593,0 z"
     sodipodi:ry="2.1767964"
     sodipodi:rx="2.1767964"
     sodipodi:cy="5.6944346"
     sodipodi:cx="19.780455"
     id="path3817"
     style="fill:#4d4d4d;fill-opacity:1;stroke:none"
     sodipodi:type="arc" /><path
     sodipodi:type="arc"
     style="fill:#cc0000;fill-opacity:0.76111115;stroke:none"
     id="path3819"
     sodipodi:cx="19.780455"
     sodipodi:cy="5.6944346"
     sodipodi:rx="2.1767964"
     sodipodi:ry="2.1767964"
     d="m 21.957251,5.6944346 a 2.1767964,2.1767964 0 1 1 -4.353593,0 2.1767964,2.1767964 0 1 1 4.353593,0 z"
     transform="matrix(0.22969534,0,0,0.22969534,56.913906,33.595259)" /><path
     transform="matrix(0.22969534,0,0,0.22969534,80.277229,33.595259)"
     d="m 21.957251,5.6944346 a 2.1767964,2.1767964 0 1 1 -4.353593,0 2.1767964,2.1767964 0 1 1 4.353593,0 z"
     sodipodi:ry="2.1767964"
     sodipodi:rx="2.1767964"
     sodipodi:cy="5.6944346"
     sodipodi:cx="19.780455"
     id="path3821"
     style="fill:#cc0000;fill-opacity:0.76111115;stroke:none"
     sodipodi:type="arc" /><path
     transform="matrix(0.57423835,0,0,0.57423835,74.220385,10.700664)"
     d="m 21.957251,5.6944346 a 2.1767964,2.1767964 0 1 1 -4.353593,0 2.1767964,2.1767964 0 1 1 4.353593,0 z"
     sodipodi:ry="2.1767964"
     sodipodi:rx="2.1767964"
     sodipodi:cy="5.6944346"
     sodipodi:cx="19.780455"
     id="path3823"
     style="fill:#b3b3b3;fill-opacity:1;stroke:none"
     sodipodi:type="arc" /><path
     transform="matrix(0.22969534,0,0,0.22969534,81.035602,12.662642)"
     d="m 21.957251,5.6944346 a 2.1767964,2.1767964 0 1 1 -4.353593,0 2.1767964,2.1767964 0 1 1 4.353593,0 z"
     sodipodi:ry="2.1767964"
     sodipodi:rx="2.1767964"
     sodipodi:cy="5.6944346"
     sodipodi:cx="19.780455"
     id="path3825"
     style="fill:#cc0000;fill-opacity:0.76111115;stroke:none"
     sodipodi:type="arc" /></svg>