<?xml version="1.0" encoding="utf-8"?>
<!-- Generator: Adobe Illustrator 16.0.0, SVG Export Plug-In . SVG Version: 6.00 Build 0)  -->
<!DOCTYPE svg PUBLIC "-//W3C//DTD SVG 1.1//EN" "http://www.w3.org/Graphics/SVG/1.1/DTD/svg11.dtd">
<svg version="1.1" id="Vrstva_1" xmlns="http://www.w3.org/2000/svg" xmlns:xlink="http://www.w3.org/1999/xlink" x="0px" y="0px"
	 width="91.333px" height="85.167px" viewBox="0 0 91.333 85.167" enable-background="new 0 0 91.333 85.167" xml:space="preserve">
<style>
	/* <![CDATA[ */
	path {
		stroke: gray;
		stroke-width: 3;
	}
	/* ]]> */
</style>

<g>
	<path fill="none" stroke-width="1.5" stroke-linecap="round" stroke-linejoin="round" stroke-miterlimit="10" d="
		M41.437,47.021h6.397c7.955-19.479,4.037-29.18-3.198-36.127C37.4,17.842,33.482,27.543,41.437,47.021z M48.278,24.418
		c0,2.012-1.63,3.643-3.644,3.643c-2.01,0-3.643-1.631-3.643-3.643c0-2.012,1.633-3.643,3.643-3.643
		C46.648,20.775,48.278,22.406,48.278,24.418z"/>
	<path fill="none" stroke-width="1.5" stroke-linecap="round" stroke-linejoin="round" stroke-miterlimit="10" d="
		M54.254,54.518c2.637-2.812,5.691-8.646-0.651-14.992c-0.653,2.456-1.556,5.063-2.707,7.828
		C53.047,48.587,54.86,51.857,54.254,54.518z"/>
	<path fill="none" stroke-width="1.5" stroke-linecap="round" stroke-linejoin="round" stroke-miterlimit="10" d="
		M35.017,54.518c-2.637-2.812-5.693-8.646,0.65-14.992c0.654,2.456,1.557,5.063,2.707,7.828
		C36.223,48.587,34.412,51.857,35.017,54.518z"/>
	<path fill="none" stroke-width="1.5" stroke-linecap="round" stroke-linejoin="round" stroke-miterlimit="10" d="
		M46.015,49.843c0.427,1.158,1.041,2.642,0.438,3.371c-0.602,0.734-1.82,1.509-1.82,1.509s-1.215-0.772-1.815-1.509
		c-0.603-0.729,0.013-2.213,0.435-3.371c-3.833,2.32-4.327,4.482-3.31,6.531c0.478,0.957,3.325,4.582,4.69,5.947
		c1.375-1.373,4.216-4.99,4.693-5.947C50.346,54.326,49.853,52.164,46.015,49.843z"/>
</g>
</svg>
