<?xml version="1.0" encoding="UTF-8" standalone="no"?>
<!-- Created with Inkscape (http://www.inkscape.org/) -->

<svg
   xmlns:dc="http://purl.org/dc/elements/1.1/"
   xmlns:cc="http://creativecommons.org/ns#"
   xmlns:rdf="http://www.w3.org/1999/02/22-rdf-syntax-ns#"
   xmlns:svg="http://www.w3.org/2000/svg"
   xmlns="http://www.w3.org/2000/svg"
   xmlns:sodipodi="http://sodipodi.sourceforge.net/DTD/sodipodi-0.dtd"
   xmlns:inkscape="http://www.inkscape.org/namespaces/inkscape"
   width="48"
   height="48"
   id="svg2"
   version="1.1"
   inkscape:version="0.48.4 r9939"
   sodipodi:docname="startup.svg">
  <defs
     id="defs4" />
  <sodipodi:namedview
     id="base"
     pagecolor="#ffffff"
     bordercolor="#666666"
     borderopacity="1.0"
     inkscape:pageopacity="0.0"
     inkscape:pageshadow="2"
     inkscape:zoom="8"
     inkscape:cx="-2.5283784"
     inkscape:cy="16.915468"
     inkscape:document-units="px"
     inkscape:current-layer="layer1"
     showgrid="false"
     inkscape:window-width="1139"
     inkscape:window-height="746"
     inkscape:window-x="150"
     inkscape:window-y="105"
     inkscape:window-maximized="0" />
  <metadata
     id="metadata7">
    <rdf:RDF>
      <cc:Work
         rdf:about="">
        <dc:format>image/svg+xml</dc:format>
        <dc:type
           rdf:resource="http://purl.org/dc/dcmitype/StillImage" />
        <dc:title />
      </cc:Work>
    </rdf:RDF>
  </metadata>
  <g
     inkscape:label="Layer 1"
     inkscape:groupmode="layer"
     id="layer1"
     transform="translate(0,-1004.3622)">
    <path
       style="fill:#000000"
       d="m 35.885602,1043.9276 c -0.0262,-0.024 -0.127657,-0.3402 -0.225433,-0.7032 -0.35306,-1.3105 -0.937143,-2.692 -1.511673,-3.5753 -0.659855,-1.0146 -1.6631,-1.5811 -3.166488,-1.7882 -0.312476,-0.044 -0.590253,-0.098 -0.617278,-0.1231 -0.07184,-0.066 0.04511,-0.5255 0.335709,-1.3212 0.57958,-1.5871 1.19625,-3.756 1.658463,-5.8334 0.149195,-0.6704 0.301024,-1.2461 0.337405,-1.2791 0.118568,-0.1078 0.486587,0.1173 1.269824,0.7768 0.932457,0.7852 1.421179,1.342 1.830655,2.0854 0.450699,0.8184 0.939681,2.1988 1.065443,3.0078 0.138795,0.8928 0.146407,3.5149 0.01328,4.5772 -0.13181,1.052 -0.789117,4.0804 -0.909354,4.1899 -0.01809,0.017 -0.05435,0.011 -0.08056,-0.013 z m -12.18068,8.0846 c -0.216835,0.013 -0.418831,0 -0.448888,-0.026 -0.0652,-0.06 -0.03771,-0.7151 0.03266,-0.779 0.06357,-0.058 0.788214,-0.092 0.845558,-0.039 0.04176,0.037 0.02972,0.706 -0.01413,0.7843 -0.01152,0.02 -0.198379,0.048 -0.415206,0.06 z m 1.592878,-1.7657 c 0,-0.043 -0.06805,-0.2231 -0.08382,-0.4311 l -0.02865,-0.3783 0.411594,0 c 0.343234,0 0.427759,0.022 0.508975,0.1463 0.0839,0.1275 0.04341,0.5495 -0.06202,0.6465 -0.225334,0.098 -0.29451,0.011 -0.746084,0.017 z m -2.083053,0.033 0,-3.4793 4e-6,-3.4792 0.468909,0 0.468913,0 4.02e-4,3.4584 c 2.21e-4,1.9023 -0.01168,3.4696 -0.02652,3.4831 -0.528875,0.097 -0.324942,0.011 -0.911706,0.017 z m 2.088657,-1.9176 c -0.07219,-0.2003 -0.07921,-4.9314 -0.0074,-4.9966 0.06423,-0.059 0.688262,-0.036 0.757944,0.028 0.109853,0.099 0.113489,5.0198 0.0036,5.1195 -0.347137,0.1513 -0.712814,0.042 -0.754208,-0.1506 z m -3.550035,1.0749 -0.419837,-0.011 0.0039,-0.3818 c 0.0021,-0.21 0.02447,-0.4006 0.0496,-0.4235 0.02511,-0.022 0.234581,-0.044 0.465486,-0.046 l 0.419846,0 0.004,0.3819 c 0.0019,0.2102 -0.02014,0.4039 -0.04958,0.4306 -0.02945,0.026 -0.242445,0.047 -0.473362,0.046 z m 0.02479,-1.7263 -0.445854,0.025 0.0032,-2.2033 0.0032,-2.2033 0.468472,0 0.468466,0 8.03e-4,2.1555 c 4.42e-4,1.1856 -0.01112,2.1664 -0.02568,2.1796 -0.01452,0.013 -0.238523,0.1222 -0.472283,0.047 z m -0.975477,-6.3132 -0.329933,-1.0027 6.524298,0.048 -0.296669,0.9359 z m 7.270286,-2.9541 c -0.292815,0.065 -1.660462,0.091 -5.837893,0.1086 l -2.536934,0.011 -0.56657,-1.5027 c -0.974015,-2.5833 -1.496012,-4.3782 -1.962272,-6.7474 -0.818479,-4.159 -0.873235,-8.5022 -0.156305,-12.3974 0.224603,-1.2202 0.545128,-2.5125 0.645989,-2.6042 0.04884,-0.045 2.900946,-0.089 6.513453,-0.1014 l 6.426569,-0.023 0.276893,1.3157 c 0.565924,2.6889 0.711616,4.0381 0.715849,6.6293 0.0064,3.894 -0.418932,6.8416 -1.524457,10.5657 -0.329877,1.1113 -1.559823,4.5425 -1.661087,4.634 -0.03033,0.027 -0.180282,0.078 -0.333235,0.1112 z m -1.015533,-15.0508 c 0.826182,-1.691 -0.289934,-3.6223 -2.307549,-3.9933 -1.169694,-0.215 -2.413223,0.264 -3.085208,1.1884 -0.611297,0.8409 -0.73716,1.6717 -0.390395,2.577 0.16745,0.4373 0.245463,0.5536 0.622889,0.9292 0.647735,0.6447 1.190418,0.867 2.184356,0.8953 0.614291,0.017 1.1742,-0.089 1.670791,-0.3161 0.49703,-0.2278 1.061238,-0.7814 1.305116,-1.2805 z m -2.0896,0.1703 c -0.277154,0.1599 -0.822965,0.1996 -1.299898,0.095 -0.366298,-0.08 -0.949272,-0.6169 -1.100196,-1.0118 -0.134104,-0.3508 -0.09663,-0.7876 0.09857,-1.1487 0.212104,-0.3924 0.442693,-0.5727 0.938632,-0.7341 0.863806,-0.281 1.658375,-0.047 2.109482,0.6229 0.156504,0.2323 0.198502,0.3916 0.198499,0.753 3e-6,0.6286 -0.268965,1.0338 -0.945093,1.4242 z m -12.821862,20.4308 c -0.143885,-0.1308 -0.849742,-3.2487 -0.981918,-4.3372 -0.337206,-2.7771 -0.04207,-5.1988 0.875908,-7.1866 0.558352,-1.2093 1.188167,-1.9666 2.183165,-2.6255 0.415179,-0.275 1.051261,-0.6162 1.087319,-0.5835 0.03864,0.035 0.277962,0.9133 0.618705,2.27 0.46625,1.8563 0.856601,3.1594 1.441386,4.811 l 0.496553,1.4025 -0.489973,0.047 c -0.956712,0.092 -2.268594,0.5959 -2.794057,1.0738 -0.786404,0.7154 -1.662669,2.4454 -2.134177,4.2138 -0.221598,0.831 -0.26174,0.9522 -0.302911,0.9147 z m 11.830336,-30.0957 -6.006839,0 0.182119,-0.4982 c 0.100162,-0.274 0.220253,-0.5329 0.266864,-0.5753 0.04662,-0.043 2.611175,-0.08 5.699022,-0.084 l 5.614272,-0.011 0.182274,0.508 c 0.100247,0.2795 0.156812,0.5422 0.125697,0.5837 -0.03113,0.042 -2.759651,0.075 -6.063409,0.075 z m 0.851304,-2.4797 c -2.315711,-0.011 -4.556593,-0.035 -4.979728,-0.057 l -0.769336,-0.038 0.120298,-0.2826 c 0.181605,-0.4264 1.184792,-2.0491 1.719495,-2.7814 0.887134,-1.2148 2.741154,-3.3809 3.022001,-3.5304 0.109288,-0.059 0.152327,-0.026 0.631584,0.4669 0.669083,0.6887 1.743084,1.9494 2.26859,2.6627 0.83933,1.1394 2.186719,3.2939 2.194904,3.5099 0.0016,0.037 -1.892098,0.06 -4.207808,0.05 z"
       id="path2996"
       inkscape:connector-curvature="0"
       sodipodi:nodetypes="sssssssssssssssssscssscsccccsccsssccccccccscsccccccscscscsscscscccssssscsssssssssssssssssssssssscssssscssscssssccssssscsccccsccscccc" />
  </g>
</svg>
