<?xml version="1.0" encoding="UTF-8" standalone="no"?>
<!-- Generator: Adobe Illustrator 19.0.0, SVG Export Plug-In . SVG Version: 6.00 Build 0)  -->

<svg
   xmlns:dc="http://purl.org/dc/elements/1.1/"
   xmlns:cc="http://creativecommons.org/ns#"
   xmlns:rdf="http://www.w3.org/1999/02/22-rdf-syntax-ns#"
   xmlns:svg="http://www.w3.org/2000/svg"
   xmlns="http://www.w3.org/2000/svg"
   xmlns:sodipodi="http://sodipodi.sourceforge.net/DTD/sodipodi-0.dtd"
   xmlns:inkscape="http://www.inkscape.org/namespaces/inkscape"
   version="1.1"
   id="Layer_1"
   x="0px"
   y="0px"
   viewBox="0 0 48 48"
   xml:space="preserve"
   inkscape:version="0.48.4 r9939"
   width="100%"
   height="100%"
   sodipodi:docname="start_point.svg"><metadata
     id="metadata43"><rdf:RDF><cc:Work
         rdf:about=""><dc:format>image/svg+xml</dc:format><dc:type
           rdf:resource="http://purl.org/dc/dcmitype/StillImage" /></cc:Work></rdf:RDF></metadata><defs
     id="defs41" /><sodipodi:namedview
     pagecolor="#ffffff"
     bordercolor="#666666"
     borderopacity="1"
     objecttolerance="10"
     gridtolerance="10"
     guidetolerance="10"
     inkscape:pageopacity="0"
     inkscape:pageshadow="2"
     inkscape:window-width="1338"
     inkscape:window-height="791"
     id="namedview39"
     showgrid="false"
     inkscape:zoom="10.565986"
     inkscape:cx="1.3900725"
     inkscape:cy="25.606188"
     inkscape:window-x="0"
     inkscape:window-y="25"
     inkscape:window-maximized="0"
     inkscape:current-layer="Layer_1" /><g
     id="g3"
     transform="matrix(0.1899478,0,0,0.1899478,-9.44778e-5,4.961e-7)"><g
       id="g5"><path
         d="m 127.152,0.044 0,-0.044 c -0.271,0 -0.533,0.018 -0.8,0.018 C 126.085,0.018 125.821,0 125.55,0 l 0,0.044 C 71.256,0.906 27.506,45.157 27.506,99.651 c 0,73.437 86.222,143.148 98.846,153.05 12.624,-9.902 98.844,-79.611 98.844,-153.05 C 225.193,45.157 181.449,0.906 127.152,0.044 z"
         id="path7"
         inkscape:connector-curvature="0"
         sodipodi:nodetypes="ccsccsccc" /></g></g><g
     id="g9"
     transform="translate(0,-204.701)" /><g
     id="g11"
     transform="translate(0,-204.701)" /><g
     id="g13"
     transform="translate(0,-204.701)" /><g
     id="g15"
     transform="translate(0,-204.701)" /><g
     id="g17"
     transform="translate(0,-204.701)" /><g
     id="g19"
     transform="translate(0,-204.701)" /><g
     id="g21"
     transform="translate(0,-204.701)" /><g
     id="g23"
     transform="translate(0,-204.701)" /><g
     id="g25"
     transform="translate(0,-204.701)" /><g
     id="g27"
     transform="translate(0,-204.701)" /><g
     id="g29"
     transform="translate(0,-204.701)" /><g
     id="g31"
     transform="translate(0,-204.701)" /><g
     id="g33"
     transform="translate(0,-204.701)" /><g
     id="g35"
     transform="translate(0,-204.701)" /><g
     id="g37"
     transform="translate(0,-204.701)" /><path
     style="font-size:medium;font-style:normal;font-variant:normal;font-weight:normal;font-stretch:normal;text-indent:0;text-align:start;text-decoration:none;line-height:normal;letter-spacing:normal;word-spacing:normal;text-transform:none;direction:ltr;block-progression:tb;writing-mode:lr-tb;text-anchor:start;baseline-shift:baseline;color:#000000;fill:#ffffff;fill-opacity:1;stroke:none;stroke-width:1;marker:none;visibility:visible;display:inline;overflow:visible;enable-background:accumulate;font-family:Sans;-inkscape-font-specification:Sans"
     d="m 23.87505,3.21875 c -0.08194,0.021065 -0.158028,0.068686 -0.21875,0.125 -2.747991,2.5044553 -4.911996,5.5519918 -5.59375,9.71875 -0.681754,4.166759 0.107296,9.403155 3.09375,16.34375 0.07481,0.175522 0.269278,0.314467 0.46875,0.3125 l 4.75,0 c 0.199472,0.002 0.393942,-0.136978 0.46875,-0.3125 C 29.830251,22.465304 30.619207,17.229253 29.93755,13.0625 29.255893,8.895747 27.091426,5.8478583 24.3438,3.34375 24.222246,3.2325323 24.038809,3.1797473 23.87505,3.21875 z m 0.125,8.625 c 1.280617,0 2.3125,1.031884 2.3125,2.3125 0,1.280617 -1.031883,2.3125 -2.3125,2.3125 -1.280616,0 -2.34375,-1.031883 -2.34375,-2.3125 0,-1.280616 1.063134,-2.3125 2.34375,-2.3125 z M 17.3438,23.125 c -0.06636,-0.0109 -0.122025,0.0127 -0.1875,0.03125 -0.07089,0.02674 -0.13555,0.06985 -0.1875,0.125 -2.446399,2.447557 -3.14743,4.912378 -2.90625,7 0.24118,2.087622 1.371419,3.771494 2.40625,4.875 0.298451,0.292872 0.911141,-0.02482 0.84375,-0.4375 -0.191739,-0.843335 -0.0046,-1.8575 0.4375,-2.75 0.442059,-0.8925 1.12381,-1.667728 1.8125,-2.0625 0.210478,-0.117868 0.309785,-0.401602 0.21875,-0.625 -0.84999,-2.043672 -1.519354,-3.945006 -2,-5.75 -0.04332,-0.199512 -0.238426,-0.373566 -0.4375,-0.40625 z m 13.1875,0.03125 c -0.170199,0.05176 -0.306959,0.200951 -0.34375,0.375 -0.479874,1.804856 -1.149305,3.706411 -2,5.75 -0.09103,0.223398 0.0083,0.507132 0.21875,0.625 0.688748,0.394805 1.401437,1.170005 1.84375,2.0625 0.442313,0.892495 0.629522,1.906816 0.4375,2.75 -0.06739,0.412681 0.545299,0.730372 0.84375,0.4375 1.034874,-1.103552 2.165372,-2.787394 2.40625,-4.875 0.240878,-2.087606 -0.460244,-4.552451 -2.90625,-7 -0.127497,-0.127747 -0.327386,-0.17772 -0.5,-0.125 z m -7.71875,7.6875 c -0.03347,0.01722 -0.06499,0.03823 -0.09375,0.0625 -1.479171,0.895298 -2.397046,1.800594 -2.8125,2.75 -0.415454,0.949406 -0.268227,1.926036 0.15625,2.78125 0.242685,0.485879 0.82152,1.286141 1.53125,2.1875 0.70973,0.901359 1.488968,1.832717 2.03125,2.375 0.185884,0.192122 0.532866,0.192122 0.71875,0 0.545929,-0.545135 1.321733,-1.474306 2.03125,-2.375 0.709517,-0.900694 1.320131,-1.701238 1.5625,-2.1875 0.425758,-0.854856 0.540546,-1.831634 0.125,-2.78125 -0.415546,-0.949616 -1.300223,-1.854361 -2.78125,-2.75 -0.349258,-0.195339 -0.84465,0.213898 -0.71875,0.59375 0.162059,0.439494 0.352501,0.920226 0.4375,1.3125 0.085,0.392274 0.03414,0.639694 -0.03125,0.71875 -0.271848,0.331457 -0.717495,0.637243 -0.96875,0.8125 -0.24328,-0.169286 -0.694349,-0.475444 -0.96875,-0.8125 -0.06522,-0.07885 -0.116236,-0.326168 -0.03125,-0.71875 0.08499,-0.392582 0.276965,-0.871965 0.4375,-1.3125 0.13781,-0.352065 -0.266636,-0.776733 -0.625,-0.65625 z"
     id="path36"
     inkscape:connector-curvature="0" /></svg>