<?xml version="1.0" encoding="UTF-8" standalone="no"?>
<!-- Generator: Adobe Illustrator 16.0.0, SVG Export Plug-In . SVG Version: 6.00 Build 0)  -->

<svg
   xmlns:dc="http://purl.org/dc/elements/1.1/"
   xmlns:cc="http://creativecommons.org/ns#"
   xmlns:rdf="http://www.w3.org/1999/02/22-rdf-syntax-ns#"
   xmlns:svg="http://www.w3.org/2000/svg"
   xmlns="http://www.w3.org/2000/svg"
   xmlns:sodipodi="http://sodipodi.sourceforge.net/DTD/sodipodi-0.dtd"
   xmlns:inkscape="http://www.inkscape.org/namespaces/inkscape"
   version="1.1"
   id="Capa_1"
   x="0px"
   y="0px"
   width="48"
   height="48"
   viewBox="0 0 48 48"
   xml:space="preserve"
   inkscape:version="0.48.4 r9939"
   sodipodi:docname="transport.svg"><metadata
     id="metadata47"><rdf:RDF><cc:Work
         rdf:about=""><dc:format>image/svg+xml</dc:format><dc:type
           rdf:resource="http://purl.org/dc/dcmitype/StillImage" /></cc:Work></rdf:RDF></metadata><defs
     id="defs45" /><sodipodi:namedview
     pagecolor="#ffffff"
     bordercolor="#666666"
     borderopacity="1"
     objecttolerance="10"
     gridtolerance="10"
     guidetolerance="10"
     inkscape:pageopacity="0"
     inkscape:pageshadow="2"
     inkscape:window-width="1075"
     inkscape:window-height="726"
     id="namedview43"
     showgrid="false"
     inkscape:zoom="5.3831355"
     inkscape:cx="12.972787"
     inkscape:cy="16.681929"
     inkscape:window-x="0"
     inkscape:window-y="25"
     inkscape:window-maximized="0"
     inkscape:current-layer="Capa_1" /><g
     id="g3"
     transform="matrix(0.09677419,0,0,0.09677419,8.8e-7,8.8e-7)"><g
       id="g5"><polygon
         points="146.667,72.985 119.178,72.985 0,423.015 60.237,423.015 "
         id="polygon7" /><polygon
         points="496,423.015 376.822,72.985 349.333,72.985 435.763,423.015 "
         id="polygon9" /><path
         d="M 170.176,72.985 83.93,423.015 h 127.624 l 3.514,-51.512 h 65.864 l 3.514,51.512 H 412.07 L 325.827,72.985 H 170.176 z m 66.475,4.013 h 22.699 l 3.596,49.085 h -29.893 l 3.598,-49.085 z m -7.193,98.169 h 37.086 l 3.597,49.084 h -44.283 l 3.6,-49.084 z m -10.791,147.25 3.596,-49.082 h 51.475 l 3.599,49.082 h -58.67 z"
         id="path11"
         inkscape:connector-curvature="0" /></g></g><g
     id="g13"
     transform="matrix(0.09677419,0,0,0.09677419,8.8e-7,8.8e-7)" /><g
     id="g15"
     transform="matrix(0.09677419,0,0,0.09677419,8.8e-7,8.8e-7)" /><g
     id="g17"
     transform="matrix(0.09677419,0,0,0.09677419,8.8e-7,8.8e-7)" /><g
     id="g19"
     transform="matrix(0.09677419,0,0,0.09677419,8.8e-7,8.8e-7)" /><g
     id="g21"
     transform="matrix(0.09677419,0,0,0.09677419,8.8e-7,8.8e-7)" /><g
     id="g23"
     transform="matrix(0.09677419,0,0,0.09677419,8.8e-7,8.8e-7)" /><g
     id="g25"
     transform="matrix(0.09677419,0,0,0.09677419,8.8e-7,8.8e-7)" /><g
     id="g27"
     transform="matrix(0.09677419,0,0,0.09677419,8.8e-7,8.8e-7)" /><g
     id="g29"
     transform="matrix(0.09677419,0,0,0.09677419,8.8e-7,8.8e-7)" /><g
     id="g31"
     transform="matrix(0.09677419,0,0,0.09677419,8.8e-7,8.8e-7)" /><g
     id="g33"
     transform="matrix(0.09677419,0,0,0.09677419,8.8e-7,8.8e-7)" /><g
     id="g35"
     transform="matrix(0.09677419,0,0,0.09677419,8.8e-7,8.8e-7)" /><g
     id="g37"
     transform="matrix(0.09677419,0,0,0.09677419,8.8e-7,8.8e-7)" /><g
     id="g39"
     transform="matrix(0.09677419,0,0,0.09677419,8.8e-7,8.8e-7)" /><g
     id="g41"
     transform="matrix(0.09677419,0,0,0.09677419,8.8e-7,8.8e-7)" /></svg>