<?xml version="1.0" encoding="UTF-8" standalone="no"?>
<!-- Generator: Adobe Illustrator 19.0.0, SVG Export Plug-In . SVG Version: 6.00 Build 0)  -->

<svg
   xmlns:dc="http://purl.org/dc/elements/1.1/"
   xmlns:cc="http://creativecommons.org/ns#"
   xmlns:rdf="http://www.w3.org/1999/02/22-rdf-syntax-ns#"
   xmlns:svg="http://www.w3.org/2000/svg"
   xmlns="http://www.w3.org/2000/svg"
   xmlns:sodipodi="http://sodipodi.sourceforge.net/DTD/sodipodi-0.dtd"
   xmlns:inkscape="http://www.inkscape.org/namespaces/inkscape"
   version="1.1"
   id="Layer_1"
   x="0px"
   y="0px"
   viewBox="0 0 48 48"
   xml:space="preserve"
   inkscape:version="0.48.4 r9939"
   width="100%"
   height="100%"
   sodipodi:docname="vvi_point.svg"><metadata
     id="metadata43"><rdf:RDF><cc:Work
         rdf:about=""><dc:format>image/svg+xml</dc:format><dc:type
           rdf:resource="http://purl.org/dc/dcmitype/StillImage" /></cc:Work></rdf:RDF></metadata><defs
     id="defs41" /><sodipodi:namedview
     pagecolor="#ffffff"
     bordercolor="#666666"
     borderopacity="1"
     objecttolerance="10"
     gridtolerance="10"
     guidetolerance="10"
     inkscape:pageopacity="0"
     inkscape:pageshadow="2"
     inkscape:window-width="1501"
     inkscape:window-height="870"
     id="namedview39"
     showgrid="false"
     inkscape:zoom="7.4712802"
     inkscape:cx="4.854729"
     inkscape:cy="30.782721"
     inkscape:window-x="0"
     inkscape:window-y="25"
     inkscape:window-maximized="0"
     inkscape:current-layer="Layer_1" /><g
     id="g3"
     transform="matrix(0.1899478,0,0,0.1899478,-9.44778e-5,4.961e-7)"><g
       id="g5"><path
         d="m 127.152,0.044 0,-0.044 c -0.271,0 -0.533,0.018 -0.8,0.018 C 126.085,0.018 125.821,0 125.55,0 l 0,0.044 C 71.256,0.906 27.506,45.157 27.506,99.651 c 0,73.437 86.222,143.148 98.846,153.05 12.624,-9.902 98.844,-79.611 98.844,-153.05 C 225.193,45.157 181.449,0.906 127.152,0.044 z"
         id="path7"
         inkscape:connector-curvature="0"
         sodipodi:nodetypes="ccsccsccc" /></g></g><g
     id="g9"
     transform="translate(0,-204.701)" /><g
     id="g11"
     transform="translate(0,-204.701)" /><g
     id="g13"
     transform="translate(0,-204.701)" /><g
     id="g15"
     transform="translate(0,-204.701)" /><g
     id="g17"
     transform="translate(0,-204.701)" /><g
     id="g19"
     transform="translate(0,-204.701)" /><g
     id="g21"
     transform="translate(0,-204.701)" /><g
     id="g23"
     transform="translate(0,-204.701)" /><g
     id="g25"
     transform="translate(0,-204.701)" /><g
     id="g27"
     transform="translate(0,-204.701)" /><g
     id="g29"
     transform="translate(0,-204.701)" /><g
     id="g31"
     transform="translate(0,-204.701)" /><g
     id="g33"
     transform="translate(0,-204.701)" /><g
     id="g35"
     transform="translate(0,-204.701)" /><g
     id="g37"
     transform="translate(0,-204.701)" /><path
     style="font-size:medium;font-style:normal;font-variant:normal;font-weight:normal;font-stretch:normal;text-indent:0;text-align:start;text-decoration:none;line-height:normal;letter-spacing:normal;word-spacing:normal;text-transform:none;direction:ltr;block-progression:tb;writing-mode:lr-tb;text-anchor:start;baseline-shift:baseline;color:#000000;fill:#ffffff;fill-opacity:1;stroke:none;stroke-width:2.22864604;marker:none;visibility:visible;display:inline;overflow:visible;enable-background:accumulate;font-family:Sans;-inkscape-font-specification:Sans"
     d="m 19.4375,5.65625 c -2.684436,0 -4.875,2.1905633 -4.875,4.875 0,2.684436 2.190564,4.875 4.875,4.875 0.491531,0 0.958438,-0.08247 1.40625,-0.21875 l 0.71875,1.59375 c -1.0314,0.68188 -1.71875,1.832828 -1.71875,3.15625 0,0.251411 0.04674,0.511953 0.09375,0.75 l -3.09375,1.15625 c -0.491315,-0.740908 -1.33214,-1.25 -2.28125,-1.25 -1.502974,0 -2.71875,1.247026 -2.71875,2.75 0,1.502974 1.215776,2.71875 2.71875,2.71875 1.502974,0 2.75,-1.215776 2.75,-2.71875 0,-0.135176 -0.012,-0.27614 -0.03125,-0.40625 l 3.0625,-1.125 c 0.654505,1.154824 1.895834,1.9375 3.3125,1.9375 0.746271,0 1.442542,-0.219355 2.03125,-0.59375 l 1.9375,2.1875 c -0.738319,0.854278 -1.21875,1.942088 -1.21875,3.15625 0,2.684732 2.190268,4.875 4.875,4.875 2.684731,0 4.875,-2.190268 4.875,-4.875 0,-2.684731 -2.190269,-4.875 -4.875,-4.875 -1.031284,0 -1.992626,0.325368 -2.78125,0.875 l -1.9375,-2.15625 c 0.54737,-0.659183 0.90625,-1.486614 0.90625,-2.40625 0,-0.646877 -0.181435,-1.246751 -0.46875,-1.78125 l 0.75,-0.5625 c 0.47979,0.413613 1.103096,0.65625 1.78125,0.65625 1.502974,0 2.71875,-1.215776 2.71875,-2.71875 0,-1.502974 -1.215776,-2.75 -2.71875,-2.75 -1.502974,0 -2.75,1.247026 -2.75,2.75 0,0.400446 0.09314,0.781085 0.25,1.125 l -0.75,0.5625 c -0.684848,-0.660287 -1.60324,-1.0625 -2.625,-1.0625 -0.35456,0 -0.673892,0.06462 -1,0.15625 L 21.9375,14.71875 c 1.416468,-0.853399 2.375,-2.418143 2.375,-4.1875 0,-2.6844367 -2.190563,-4.875 -4.875,-4.875 z"
     id="circle7"
     inkscape:connector-curvature="0"
     sodipodi:nodetypes="sssccsccssssccsccssssccsccssssccsccss" /></svg>